<svg xmlns="http://www.w3.org/2000/svg" width="274" height="250.031" viewBox="0 0 274 250.031"><defs><clipPath id="a"><path data-name="長方形 1850" fill="#fff" d="M0 0h207.443v195.915H0z"/></clipPath></defs><g data-name="グループ 6919" fill="#fff"><g data-name="グループ 6663" transform="translate(33)" clip-path="url(#a)"><path data-name="パス 29998" d="M47.913 134.873c6.662 13.762-1.608 61.04-1.608 61.04H26.238s8.27-47.278 1.608-61.04a45.171 45.171 0 0 1-3.839-18.159H20.07a45.172 45.172 0 0 0 3.839 18.159c6.662 13.762-1.608 61.04-1.608 61.04H2.231s8.27-47.278 1.611-61.04c-3.455-7.128-5.77-21.345-1.611-28.473 9.511-16.285-.017-56.449-.017-75.274h35.814a8.58 8.58 0 0 1 8.546 7.876c1.714 20.519 8.127 53.161-.269 67.4-.847 1.442-6.121 3.326-6.121 3.326s4.3.493 4.132 3.139c-.473 7.383 1.01 16.666 3.6 22.008M26.884 42.157h-4.033c1.983 20.209 7.182 49.648-.156 63.529h3.938c7.342-13.881 2.207-43.319.252-63.529"/><path data-name="パス 29999" d="M99.673 189.662a7.327 7.327 0 0 1-7.25 6.25H63.161a7.329 7.329 0 0 1-7.257-8.365c2.023-14.218 5.216-42.537.309-52.674-3.452-7.128-5.771-21.345-1.608-28.473 9.511-16.285-.017-56.449-.017-75.274h19.965c0 18.825 9.63 58.989.119 75.274-4.162 7.128-1.84 21.345 1.608 28.473 4.621 9.539 2.061 35.172.058 50.012h3.941c2-14.84 4.56-40.473-.061-50.012-3.448-7.128-5.767-21.345-1.608-28.473 9.515-16.285-.017-56.449-.017-75.274h19.968c0 18.825 9.63 58.989.116 75.274-4.159 7.128-1.843 21.345 1.612 28.473 5.162 10.667 1.357 41.473-.619 54.789"/><path data-name="パス 30000" d="M152.044 189.662a7.327 7.327 0 0 1-7.25 6.25h-29.26a7.333 7.333 0 0 1-7.26-8.365c2.027-14.218 5.22-40.3.313-50.437a36.114 36.114 0 0 1-2.275-6.39h20.066a36.113 36.113 0 0 0 2.275 6.39c4.567 9.426 2.122 33.526.129 47.774h3.87c2-14.84 4.56-40.473-.058-50.012a37.25 37.25 0 0 1-2.547-7.474h-23.991c-1.714-7.182-2.068-15.881.922-21 8.328-14.258 2.057-46.832.371-67.351a7.328 7.328 0 0 1 7.308-7.923h29.264a7.337 7.337 0 0 1 7.311 6.784c1.547 20.322 8.233 51.671-.048 66.327h-19.661c7.709-13.64 2.241-42.092.156-62.08h-4.08c2.013 20.563 7.366 50.682-.554 64.243-.139.241-.269.49-.394.745h4.933v.041h15.469a2.543 2.543 0 0 1 2.472 3.146c-1.86 7.587.238 18.56 3.135 24.542 5.162 10.667 1.357 41.473-.619 54.789"/><path data-name="パス 30001" d="M203.24 195.915h-20.067s8.27-47.277 1.613-61.04a45.141 45.141 0 0 1-3.84-18.158h-3.941a45.2 45.2 0 0 0 3.839 18.158c6.662 13.762-1.608 61.04-1.608 61.04h-20.07s8.273-47.278 1.612-61.04c-3.455-7.131-5.771-21.345-1.612-28.473 9.515-16.285-.017-56.449-.017-75.274h19.964c0 18.553 9.355 57.84.517 74.56h3.941c8.838-16.72-.418-56.007-.418-74.56h19.964c0 18.553 9.358 57.84.52 74.56h2.771l-1.332 11.029h-4.067a45.255 45.255 0 0 0 3.839 18.158c6.665 13.762-1.608 61.04-1.608 61.04"/><path data-name="パス 30002" d="M9.851 17.813c-3.741 0-6.662-1.857-6.787-5.376h4.509a2 2 0 0 0 2.156 1.983c1.238 0 2.027-.619 2.027-1.632 0-3.225-8.693-1.487-8.641-7.659 0-3.295 2.7-5.128 6.339-5.128 3.792 0 6.342 1.884 6.515 5.2h-4.58a1.881 1.881 0 0 0-2.01-1.8 1.539 1.539 0 0 0-1.782 1.582c0 3.02 8.6 1.659 8.6 7.481 0 2.921-2.278 5.349-6.342 5.349"/><path data-name="パス 30003" d="M24.039 3.619a4.806 4.806 0 0 1 4.257 2.156V3.816h4.237v13.823h-4.237v-1.958a4.881 4.881 0 0 1-4.285 2.156c-3.367 0-6.067-2.775-6.067-7.134s2.7-7.083 6.094-7.083m1.238 3.69a3.079 3.079 0 0 0-3.023 3.392 3.123 3.123 0 0 0 3.023 3.445c1.608 0 3.02-1.214 3.02-3.421s-1.411-3.418-3.02-3.418"/><path data-name="パス 30004" d="M49.25 17.639h-4.237v-1.884a5.033 5.033 0 0 1-4.186 2.034c-3.2 0-5.349-2.2-5.349-5.9V3.816h4.21v7.508c0 1.88 1.064 2.921 2.649 2.921 1.636 0 2.676-1.041 2.676-2.921V3.816h4.237z"/><path data-name="パス 30005" d="M61.825 10.131c0-1.884-1.041-2.924-2.652-2.924s-2.649 1.041-2.649 2.924v7.508h-4.237V3.82h4.237v1.83a5.075 5.075 0 0 1 4.187-1.983c3.2 0 5.325 2.183 5.325 5.9v8.076h-4.21z"/><path data-name="パス 30006" d="M74.23 3.619a4.812 4.812 0 0 1 4.261 2.156V3.816h4.234v13.823h-4.234v-1.958a4.89 4.89 0 0 1-4.285 2.156c-3.37 0-6.07-2.775-6.07-7.134s2.7-7.083 6.094-7.083m1.238 3.69a3.077 3.077 0 0 0-3.02 3.394 3.121 3.121 0 0 0 3.02 3.445c1.612 0 3.023-1.214 3.023-3.421s-1.412-3.419-3.023-3.419"/><path data-name="パス 30007" d="M97.901 11.396h-2.628v6.243h-4.234V.249h6.862c4.261 0 6.39 2.4 6.39 5.6 0 2.877-1.955 5.55-6.39 5.55m-.323-3.367c1.683 0 2.4-.843 2.4-2.183s-.721-2.176-2.4-2.176h-2.305v4.356z"/><path data-name="パス 30008" d="M110.728 17.64h-4.237V3.817h4.237v2.305a5.156 5.156 0 0 1 4.336-2.455v4.485h-1.17c-2.006 0-3.166.694-3.166 3.071z"/><path data-name="パス 30009" d="M123.381 17.837a6.781 6.781 0 0 1-7.134-7.111 6.83 6.83 0 0 1 7.182-7.107 6.818 6.818 0 0 1 7.185 7.107 6.861 6.861 0 0 1-7.233 7.111m0-3.666c1.51 0 2.924-1.115 2.924-3.445 0-2.353-1.387-3.441-2.877-3.441-1.534 0-2.873 1.088-2.873 3.441 0 2.329 1.289 3.445 2.826 3.445"/><path data-name="パス 30010" d="M132.217.249h13.453v3.394h-4.608v14h-4.237v-14h-4.608z"/><path data-name="パス 30011" d="M153.937 17.837c-4.06 0-6.985-2.724-6.985-7.111s2.872-7.107 6.985-7.107a6.514 6.514 0 0 1 6.885 6.886 11.061 11.061 0 0 1-.071 1.238h-9.59a2.563 2.563 0 0 0 2.629 2.649 2.25 2.25 0 0 0 2.2-1.336h4.509a6.462 6.462 0 0 1-6.562 4.781m-2.749-8.447h5.3a2.39 2.39 0 0 0-2.6-2.377 2.618 2.618 0 0 0-2.7 2.377"/><path data-name="パス 30012" d="M168.299 3.619a4.812 4.812 0 0 1 4.261 2.156V3.816h4.234v13.823h-4.234v-1.958a4.89 4.89 0 0 1-4.285 2.156c-3.37 0-6.07-2.775-6.07-7.134s2.7-7.083 6.094-7.083m1.238 3.69a3.077 3.077 0 0 0-3.02 3.394 3.121 3.121 0 0 0 3.02 3.445c1.612 0 3.023-1.214 3.023-3.421s-1.411-3.418-3.023-3.418"/><path data-name="パス 30013" d="M198.908 10.131a2.655 2.655 0 1 0-5.3 0v7.508h-4.21v-7.508a2.655 2.655 0 1 0-5.3 0v7.508h-4.24V3.82h4.237v1.731a4.884 4.884 0 0 1 4.036-1.884 5.158 5.158 0 0 1 4.706 2.574 5.578 5.578 0 0 1 4.66-2.574c3.418 0 5.621 2.183 5.621 5.9v8.076h-4.21z"/></g><text transform="translate(137 248.031)" font-size="20" font-family="HiraginoSans-W8, Hiragino Sans" letter-spacing=".15em"><tspan x="-136.5" y="0">可能性超無限大のサウナ屋</tspan></text></g></svg>