<svg xmlns="http://www.w3.org/2000/svg" xmlns:xlink="http://www.w3.org/1999/xlink" width="344.611" height="93.702" viewBox="0 0 344.611 93.702">
  <defs>
    <clipPath id="clip-path">
      <rect id="logo_img_2" width="344.611" height="93.702" fill="#ded8d0"/>
    </clipPath>
  </defs>
  <g id="logo_img_2-2" data-name="logo_img_2" transform="translate(0 0)">
    <g id="グループ_5760" data-name="グループ 5760" transform="translate(0 0)" clip-path="url(#clip-path)">
      <path id="パス_3028" data-name="パス 3028" d="M101.867,58.763c3.775,7.793-.912,34.571-.912,34.571H89.588s4.687-26.779.912-34.571a25.628,25.628,0,0,1-2.173-10.285H86.1a25.628,25.628,0,0,0,2.173,10.285c3.775,7.793-.912,34.571-.912,34.571H75.991s4.686-26.779.915-34.571c-1.957-4.039-3.27-12.09-.915-16.126,5.389-9.224-.009-31.973-.009-42.637H96.268a4.863,4.863,0,0,1,4.841,4.462c.97,11.622,4.6,30.11-.155,38.176-.48.815-3.468,1.881-3.468,1.881s2.437.28,2.34,1.778c-.267,4.182.574,9.44,2.039,12.467M89.956,6.249H87.674C88.795,17.7,91.74,34.368,87.582,42.23h2.231c4.161-7.862,1.252-24.533.143-35.981" transform="translate(152.388 -0.001)" fill="#ded8d0"/>
      <path id="パス_3029" data-name="パス 3029" d="M111.277,89.794a4.15,4.15,0,0,1-4.106,3.541H90.6A4.152,4.152,0,0,1,86.489,88.6c1.146-8.054,2.954-24.095.176-29.833-1.957-4.039-3.27-12.09-.912-16.129C91.142,33.41,85.744,10.662,85.744,0H97.05c0,10.662,5.455,33.41.07,42.634-2.358,4.039-1.045,12.09.909,16.129,2.617,5.4,1.17,19.919.033,28.326h2.231c1.137-8.406,2.583-22.925-.033-28.326-1.954-4.039-3.267-12.09-.909-16.129,5.386-9.224-.012-31.973-.012-42.634h11.309c0,10.662,5.455,33.41.067,42.634-2.355,4.039-1.042,12.09.912,16.129,2.924,6.039.769,23.49-.35,31.03" transform="translate(172.292 -0.001)" fill="#ded8d0"/>
      <path id="パス_3030" data-name="パス 3030" d="M121.036,89.794a4.15,4.15,0,0,1-4.106,3.541H100.357A4.152,4.152,0,0,1,96.248,88.6c1.146-8.054,2.954-22.828.176-28.569a20.009,20.009,0,0,1-1.289-3.62H106.5a20.479,20.479,0,0,0,1.289,3.62c2.586,5.34,1.2,18.989.076,27.061h2.188c1.137-8.406,2.583-22.925-.03-28.326a21.116,21.116,0,0,1-1.444-4.237H94.99c-.969-4.066-1.17-8.993.523-11.892,4.717-8.075,1.164-26.526.21-38.145A4.15,4.15,0,0,1,99.859,0h16.579a4.154,4.154,0,0,1,4.139,3.842c.875,11.51,4.662,29.268-.027,37.568H109.414c4.367-7.726,1.267-23.84.088-35.161h-2.31c1.14,11.646,4.173,28.705-.313,36.386-.079.137-.155.28-.225.422h2.793v.021h8.762a1.443,1.443,0,0,1,1.4,1.784c-1.052,4.294.134,10.513,1.778,13.9,2.924,6.039.766,23.49-.353,31.03" transform="translate(192.195 -0.001)" fill="#ded8d0"/>
      <path id="パス_3031" data-name="パス 3031" d="M130.2,93.334H118.835s4.687-26.779.912-34.574a25.565,25.565,0,0,1-2.173-10.285h-2.231a25.616,25.616,0,0,0,2.173,10.285c3.775,7.8-.912,34.574-.912,34.574H105.238s4.686-26.779.912-34.574c-1.954-4.036-3.267-12.087-.912-16.126,5.389-9.224-.009-31.973-.009-42.634h11.309c0,10.51,5.3,32.76.292,42.23h2.231c5.009-9.47-.234-31.72-.234-42.23h11.306c0,10.51,5.3,32.76.295,42.23H132l-.757,6.246h-2.3a25.615,25.615,0,0,0,2.176,10.285c3.775,7.8-.912,34.574-.912,34.574" transform="translate(212.029 -0.001)" fill="#ded8d0"/>
      <path id="パス_3032" data-name="パス 3032" d="M17.7,46.461C7.948,46.461.322,41.616,0,32.438H11.759c.325,3.489,2.52,5.173,5.626,5.173,3.225,0,5.294-1.617,5.294-4.264,0-8.4-22.679-3.878-22.551-19.971C.128,4.784,7.173,0,16.67,0c9.887,0,16.542,4.911,16.992,13.573H21.712c-.195-2.912-2.261-4.656-5.237-4.717-2.647-.067-4.653,1.289-4.653,4.136,0,7.881,22.423,4.325,22.423,19.512,0,7.625-5.945,13.956-16.542,13.956" transform="translate(0 -0.001)" fill="#ded8d0"/>
      <path id="パス_3033" data-name="パス 3033" d="M28.667,3.105c5.364,0,9.178,2.459,11.114,5.623v-5.1H50.835V39.679H39.782V34.573c-2,3.164-5.814,5.623-11.178,5.623-8.786,0-15.831-7.239-15.831-18.609s7.045-18.482,15.9-18.482M31.9,12.73c-4.136,0-7.884,3.106-7.884,8.856s3.747,8.978,7.884,8.978c4.2,0,7.881-3.164,7.881-8.917S36.1,12.73,31.9,12.73" transform="translate(26.045 6.331)" fill="#ded8d0"/>
      <path id="パス_3034" data-name="パス 3034" d="M63.749,39.329H52.7V34.418a13.131,13.131,0,0,1-10.917,5.3c-8.337,0-13.959-5.75-13.959-15.382V3.275H38.806V22.854c0,4.911,2.778,7.625,6.914,7.625,4.261,0,6.975-2.714,6.975-7.625V3.275H63.749Z" transform="translate(56.729 6.678)" fill="#ded8d0"/>
      <path id="パス_3035" data-name="パス 3035" d="M67.129,20.012c0-4.911-2.714-7.625-6.917-7.625S53.3,15.1,53.3,20.012V39.59H42.25V3.536H53.3V8.32A13.226,13.226,0,0,1,64.221,3.147c8.334,0,13.889,5.683,13.889,15.375V39.59H67.129Z" transform="translate(86.157 6.417)" fill="#ded8d0"/>
      <path id="パス_3036" data-name="パス 3036" d="M71.747,3.105c5.364,0,9.178,2.459,11.114,5.623v-5.1H93.912V39.679H82.862V34.573c-2,3.164-5.817,5.623-11.178,5.623-8.789,0-15.831-7.239-15.831-18.609s7.042-18.482,15.9-18.482m3.231,9.625c-4.136,0-7.881,3.106-7.881,8.856s3.744,8.978,7.881,8.978c4.2,0,7.884-3.164,7.884-8.917s-3.68-8.917-7.884-8.917" transform="translate(113.895 6.331)" fill="#ded8d0"/>
      <path id="パス_3037" data-name="パス 3037" d="M12.719,40.768H7.85V52.344H0V20.1H12.719c7.9,0,11.85,4.459,11.85,10.379,0,5.328-3.629,10.288-11.85,10.288m-.6-6.243c3.124,0,4.455-1.565,4.455-4.045s-1.331-4.039-4.455-4.039H7.85v8.084Z" transform="translate(0 40.989)" fill="#ded8d0"/>
      <path id="パス_3038" data-name="パス 3038" d="M17.277,48.09H9.427V22.464h7.85v4.27a9.564,9.564,0,0,1,8.039-4.547V30.5H23.155c-3.72,0-5.878,1.283-5.878,5.692Z" transform="translate(19.224 45.243)" fill="#ded8d0"/>
      <path id="パス_3039" data-name="パス 3039" d="M28.6,48.522c-7.534,0-13.227-5.057-13.227-13.184S21.207,22.157,28.7,22.157c7.531,0,13.318,5.051,13.318,13.181S36.136,48.522,28.6,48.522m0-6.8c2.8,0,5.419-2.067,5.419-6.385,0-4.361-2.571-6.382-5.328-6.382-2.848,0-5.328,2.021-5.328,6.382,0,4.319,2.389,6.385,5.237,6.385" transform="translate(31.359 45.182)" fill="#ded8d0"/>
      <path id="パス_3040" data-name="パス 3040" d="M25.12,20.1H50.063V26.4H41.517V52.344h-7.85V26.4H25.12Z" transform="translate(51.226 40.99)" fill="#ded8d0"/>
      <path id="パス_3041" data-name="パス 3041" d="M47.061,48.521c-7.534,0-12.953-5.054-12.953-13.184s5.328-13.181,12.953-13.181c7.486,0,12.768,4.96,12.768,12.768a19.93,19.93,0,0,1-.137,2.3H41.916c.277,3.352,2.343,4.914,4.869,4.914a4.174,4.174,0,0,0,4.088-2.48h8.361c-1.24,5.006-5.79,8.865-12.172,8.865m-5.1-15.664h9.829c0-2.8-2.206-4.41-4.823-4.41a4.854,4.854,0,0,0-5.006,4.41" transform="translate(69.554 45.18)" fill="#ded8d0"/>
      <path id="パス_3042" data-name="パス 3042" d="M54.714,22.157a8.923,8.923,0,0,1,7.9,4V22.525h7.853V48.151H62.613V44.523a9.06,9.06,0,0,1-7.945,4c-6.249,0-11.254-5.145-11.254-13.227s5.006-13.136,11.3-13.136M57.008,29c-2.939,0-5.6,2.206-5.6,6.294s2.662,6.382,5.6,6.382c2.988,0,5.6-2.249,5.6-6.337S60,29,57.008,29" transform="translate(88.531 45.182)" fill="#ded8d0"/>
      <path id="パス_3043" data-name="パス 3043" d="M89.5,34.174c0-3.352-1.93-5.191-4.914-5.191s-4.917,1.839-4.917,5.191V48.09h-7.8V34.174c0-3.352-1.93-5.191-4.914-5.191s-4.914,1.839-4.914,5.191V48.09H54.185V22.464h7.853v3.212a9.049,9.049,0,0,1,7.486-3.489,9.575,9.575,0,0,1,8.729,4.778,10.3,10.3,0,0,1,8.631-4.778c6.34,0,10.425,4.039,10.425,10.929V48.09H89.5Z" transform="translate(110.495 45.243)" fill="#ded8d0"/>
    </g>
  </g>
</svg>
