<svg id="グループ_6876" data-name="グループ 6876" xmlns="http://www.w3.org/2000/svg" xmlns:xlink="http://www.w3.org/1999/xlink" width="175.722" height="165.958" viewBox="0 0 175.722 165.958">
  <defs>
    <clipPath id="clip-path">
      <rect id="長方形_1850" data-name="長方形 1850" width="175.722" height="165.957" fill="#fff"/>
    </clipPath>
  </defs>
  <g id="グループ_6663" data-name="グループ 6663" transform="translate(0 0)" clip-path="url(#clip-path)">
    <path id="パス_29998" data-name="パス 29998" d="M40.586,97.036c5.643,11.658-1.363,51.706-1.363,51.706h-17s7.006-40.048,1.363-51.706a38.264,38.264,0,0,1-3.252-15.382H17a38.264,38.264,0,0,0,3.252,15.382c5.643,11.658-1.362,51.706-1.362,51.706h-17S8.9,108.693,3.254,97.036C.327,91-1.634,78.955,1.889,72.917,9.946,59.122,1.874,25.1,1.874,9.153H32.212a7.268,7.268,0,0,1,7.239,6.671c1.452,17.381,6.885,45.032-.228,57.093-.717,1.221-5.185,2.817-5.185,2.817s3.644.418,3.5,2.659c-.4,6.254.856,14.118,3.048,18.643M22.773,18.5H19.356c1.679,17.119,6.084,42.056-.133,53.815H22.56c6.219-11.758,1.869-36.7.213-53.815" transform="translate(0.001 17.214)" fill="#fff"/>
    <path id="パス_29999" data-name="パス 29999" d="M55.465,143.447a6.206,6.206,0,0,1-6.141,5.294H24.539a6.208,6.208,0,0,1-6.147-7.086c1.714-12.044,4.419-36.033.262-44.62C15.73,91,13.766,78.955,17.292,72.917c8.057-13.795-.014-47.817-.014-63.764H34.189c0,15.947,8.158,49.969.1,63.764C30.764,78.955,32.731,91,35.652,97.036c3.915,8.08,1.746,29.794.049,42.364H39.04c1.7-12.571,3.863-34.284-.052-42.364C36.067,91,34.1,78.955,37.625,72.917c8.06-13.795-.014-47.817-.014-63.764H54.526c0,15.947,8.158,49.969.1,63.764C51.1,78.955,53.062,91,55.989,97.036c4.373,9.036,1.149,35.131-.524,46.411" transform="translate(28.964 17.214)" fill="#fff"/>
    <path id="パス_30000" data-name="パス 30000" d="M70.866,143.447a6.206,6.206,0,0,1-6.141,5.294H39.94a6.212,6.212,0,0,1-6.15-7.086c1.717-12.044,4.422-34.14.265-42.724a30.592,30.592,0,0,1-1.927-5.413h17a30.591,30.591,0,0,0,1.927,5.413c3.869,7.985,1.8,28.4.109,40.469h3.278c1.7-12.571,3.863-34.284-.049-42.364A31.554,31.554,0,0,1,52.234,90.7H31.912c-1.452-6.084-1.751-13.452.781-17.787,7.054-12.078,1.743-39.671.314-57.052A6.207,6.207,0,0,1,39.2,9.153h24.79A6.215,6.215,0,0,1,70.18,14.9c1.311,17.214,6.974,43.77-.04,56.185H53.485c6.53-11.554,1.9-35.656.133-52.587H50.16c1.705,17.419,6.239,42.932-.47,54.419-.118.2-.228.415-.334.631h4.18v.035h13.1a2.154,2.154,0,0,1,2.094,2.665c-1.576,6.427.2,15.722,2.656,20.789,4.373,9.036,1.149,35.131-.524,46.411" transform="translate(57.927 17.214)" fill="#fff"/>
    <path id="パス_30001" data-name="パス 30001" d="M85.374,148.743h-17s7.005-40.048,1.362-51.706a38.239,38.239,0,0,1-3.249-15.382H63.15A38.286,38.286,0,0,0,66.4,97.037c5.643,11.658-1.362,51.706-1.362,51.706h-17s7.008-40.048,1.365-51.706C46.477,91,44.516,78.956,48.039,72.918c8.06-13.795-.014-47.817-.014-63.764H64.936c0,15.716,7.924,49,.438,63.159h3.339c7.487-14.164-.354-47.443-.354-63.159H85.27c0,15.716,7.927,49,.441,63.159h2.348l-1.129,9.342H83.484a38.335,38.335,0,0,0,3.252,15.382c5.646,11.658-1.363,51.706-1.363,51.706" transform="translate(86.789 17.215)" fill="#fff"/>
    <path id="パス_30002" data-name="パス 30002" d="M6.651,15.088c-3.169,0-5.643-1.573-5.75-4.554h3.82a1.69,1.69,0,0,0,1.826,1.679c1.049,0,1.717-.524,1.717-1.383C8.264,8.1.9,9.569.944,4.344.944,1.553,3.231,0,6.314,0c3.212,0,5.372,1.6,5.519,4.407H7.953a1.593,1.593,0,0,0-1.7-1.53A1.3,1.3,0,0,0,4.741,4.22c0,2.558,7.282,1.406,7.282,6.337,0,2.474-1.93,4.531-5.372,4.531" transform="translate(1.694 0.001)" fill="#fff"/>
    <path id="パス_30003" data-name="パス 30003" d="M10.439,1.064A4.071,4.071,0,0,1,14.045,2.89V1.231h3.589V12.941H14.045V11.281a4.135,4.135,0,0,1-3.629,1.826c-2.852,0-5.139-2.351-5.139-6.043s2.287-6,5.162-6m1.049,3.125A2.608,2.608,0,0,0,8.927,7.064a2.646,2.646,0,0,0,2.561,2.918,2.614,2.614,0,0,0,2.558-2.9,2.613,2.613,0,0,0-2.558-2.895" transform="translate(9.924 2.002)" fill="#fff"/>
    <path id="パス_30004" data-name="パス 30004" d="M22.1,12.831H18.51v-1.6a4.263,4.263,0,0,1-3.546,1.723c-2.708,0-4.531-1.867-4.531-4.995V1.122H14v6.36a2.184,2.184,0,0,0,2.244,2.474A2.18,2.18,0,0,0,18.51,7.482V1.122H22.1Z" transform="translate(19.62 2.111)" fill="#fff"/>
    <path id="パス_30005" data-name="パス 30005" d="M23.456,6.554a2.256,2.256,0,1,0-4.491,0v6.36H15.376V1.208h3.589v1.55a4.3,4.3,0,0,1,3.546-1.679c2.708,0,4.511,1.849,4.511,4.995v6.841H23.456Z" transform="translate(28.915 2.028)" fill="#fff"/>
    <path id="パス_30006" data-name="パス 30006" d="M25.2,1.064A4.076,4.076,0,0,1,28.808,2.89V1.231h3.586V12.941H28.808V11.281a4.142,4.142,0,0,1-3.629,1.826c-2.855,0-5.142-2.351-5.142-6.043s2.287-6,5.162-6m1.049,3.125A2.606,2.606,0,0,0,23.69,7.064a2.644,2.644,0,0,0,2.558,2.918,2.615,2.615,0,0,0,2.561-2.9,2.614,2.614,0,0,0-2.561-2.895" transform="translate(37.681 2.002)" fill="#fff"/>
    <path id="パス_30007" data-name="パス 30007" d="M32.585,9.515H30.358V14.8H26.772V.073h5.813C36.194.073,38,2.11,38,4.814c0,2.437-1.656,4.7-5.413,4.7m-.274-2.852c1.426,0,2.037-.714,2.037-1.849s-.611-1.844-2.037-1.844H30.358V6.664Z" transform="translate(50.346 0.138)" fill="#fff"/>
    <path id="パス_30008" data-name="パス 30008" d="M34.905,12.914H31.316V1.2h3.589V3.158a4.368,4.368,0,0,1,3.673-2.08v3.8h-.991c-1.7,0-2.682.588-2.682,2.6Z" transform="translate(58.891 2.028)" fill="#fff"/>
    <path id="パス_30009" data-name="パス 30009" d="M40.228,13.108a5.744,5.744,0,0,1-6.043-6.023,5.786,5.786,0,0,1,6.084-6.02,5.776,5.776,0,0,1,6.087,6.02,5.812,5.812,0,0,1-6.127,6.023m0-3.105c1.279,0,2.477-.945,2.477-2.918,0-1.993-1.175-2.915-2.437-2.915-1.3,0-2.434.922-2.434,2.915,0,1.973,1.092,2.918,2.394,2.918" transform="translate(64.287 2.002)" fill="#fff"/>
    <path id="パス_30010" data-name="パス 30010" d="M38.881.073h11.4V2.948h-3.9V14.8H42.785V2.948h-3.9Z" transform="translate(73.119 0.138)" fill="#fff"/>
    <path id="パス_30011" data-name="パス 30011" d="M49.131,13.108a5.645,5.645,0,0,1-5.917-6.023,5.622,5.622,0,0,1,5.917-6.02A5.518,5.518,0,0,1,54.964,6.9a9.369,9.369,0,0,1-.06,1.049H46.78a2.171,2.171,0,0,0,2.227,2.244,1.906,1.906,0,0,0,1.867-1.132h3.82a5.474,5.474,0,0,1-5.562,4.05M46.8,5.952h4.491a2.025,2.025,0,0,0-2.2-2.014A2.218,2.218,0,0,0,46.8,5.952" transform="translate(81.266 2.002)" fill="#fff"/>
    <path id="パス_30012" data-name="パス 30012" d="M52.862,1.064A4.076,4.076,0,0,1,56.471,2.89V1.231h3.586V12.941H56.471V11.281a4.142,4.142,0,0,1-3.63,1.826c-2.855,0-5.142-2.351-5.142-6.043s2.287-6,5.162-6M53.91,4.189a2.606,2.606,0,0,0-2.558,2.875A2.644,2.644,0,0,0,53.91,9.982a2.615,2.615,0,0,0,2.561-2.9A2.614,2.614,0,0,0,53.91,4.189" transform="translate(89.702 2.002)" fill="#fff"/>
    <path id="パス_30013" data-name="パス 30013" d="M69.028,6.554a2.249,2.249,0,1,0-4.491,0v6.36H60.971V6.554a2.249,2.249,0,1,0-4.491,0v6.36H52.891V1.208H56.48V2.674a4.137,4.137,0,0,1,3.419-1.6,4.37,4.37,0,0,1,3.987,2.181,4.725,4.725,0,0,1,3.946-2.181c2.895,0,4.762,1.849,4.762,4.995v6.841H69.028Z" transform="translate(99.464 2.028)" fill="#fff"/>
  </g>
</svg>
