<svg xmlns="http://www.w3.org/2000/svg" width="197.062" height="132.026" viewBox="0 0 197.062 132.026">
  <g id="mission_text" transform="translate(-958.679 -2173.808)">
    <path id="パス_30612" data-name="パス 30612" d="M-83.324-25.456q-1.85.185-3.682.407t-3.681.407h-.222a1.122,1.122,0,0,0-.647.259,1.849,1.849,0,0,1-1.091.259q-.333,0-1.129-.056a14.721,14.721,0,0,1-1.609-.2,7.159,7.159,0,0,1-1.443-.407q-.629-.259-.629-.666a.776.776,0,0,1,.333-.721,1.746,1.746,0,0,1,.777-.24q2.442-.185,4.662-.333t4.7-.481q1.036-.148,2.054-.259t2.053-.259a2.9,2.9,0,0,0,.888-.259,6.047,6.047,0,0,0,.647-.37q.278-.185.481-.333a.668.668,0,0,1,.388-.148.841.841,0,0,1,.647.259.888.888,0,0,0,.685.259,7.226,7.226,0,0,0,1.258-.111q.629-.111,1.258-.185,2.109-.222,4.181-.444t4.181-.444q.962-.074,1.961-.185a17.751,17.751,0,0,1,1.961-.111q.222,0,.666.019a5.081,5.081,0,0,1,.87.111,2.5,2.5,0,0,1,.74.278.6.6,0,0,1,.314.555.871.871,0,0,1-.185.629.893.893,0,0,1-.481.241,2.127,2.127,0,0,1-.629.018,5.426,5.426,0,0,0-.592-.037,18.546,18.546,0,0,0-3.015.24q-1.462.241-2.979.426l-4.662.592q-2.331.3-4.662.629a2.836,2.836,0,0,0-.925.315q-.444.241-.851.5a4.9,4.9,0,0,0-.962,1.332q-.7,1.184-1.628,2.941t-1.961,3.811q-1.036,2.053-1.961,3.922t-1.628,3.33q-.7,1.461-.962,1.979-.148.3-.481,1.017t-.74,1.665q-.407.944-.869,1.961T-92.8-1.462q-.407.87-.7,1.48t-.37.722A.6.6,0,0,1-94.387,1a1.021,1.021,0,0,1-.573-.185A.588.588,0,0,1-95.238.3a6.961,6.961,0,0,1,.481-1.924Q-94.276-3-93.536-4.754t1.646-3.737q.906-1.98,1.757-3.755l1.517-3.164q.666-1.388.962-1.943a14.239,14.239,0,0,0,.611-1.313,14.236,14.236,0,0,1,.61-1.314q.148-.259.3-.481l.3-.444q.666-1.11,1.276-2.257T-83.324-25.456Zm4.773,17.982a10.5,10.5,0,0,0-1.055,1.055q-.61.684-1.313,1.351A14.2,14.2,0,0,1-82.307-3.9a2.212,2.212,0,0,1-1.277.5,1.379,1.379,0,0,1-1.295-.722,3.01,3.01,0,0,1-.407-1.5,6.733,6.733,0,0,1,.352-1.758,14.586,14.586,0,0,1,.925-2.313,10.487,10.487,0,0,1,1.277-2,1.916,1.916,0,0,1,1.406-.851,1.216,1.216,0,0,1,.869.333,1.166,1.166,0,0,1,.352.888,2.153,2.153,0,0,1-.3.869q-.3.574-.684,1.258t-.74,1.388a5,5,0,0,0-.462,1.295,3.24,3.24,0,0,0,1.11-.7q.629-.555,1.314-1.277t1.387-1.517q.7-.8,1.295-1.462t1.055-1.092q.462-.425.684-.425a.81.81,0,0,1,.5.185.579.579,0,0,1,.241.481,2.817,2.817,0,0,1-.333.851q-.333.666-.74,1.536t-.74,1.776a4.609,4.609,0,0,0-.333,1.536,4.488,4.488,0,0,0,.037.555.321.321,0,0,0,.37.3.878.878,0,0,0,.5-.2q.277-.2.463-.352.851-.74,1.5-1.369a12.928,12.928,0,0,0,1.313-1.517q.148-.185.3-.407a1.617,1.617,0,0,1,.333-.37.6.6,0,0,1,.37-.111.746.746,0,0,1,.481.148A.534.534,0,0,1-71-9.509,2.681,2.681,0,0,1-71.669-8.1,13.756,13.756,0,0,1-73.26-6.345a15.751,15.751,0,0,1-1.868,1.517,2.989,2.989,0,0,1-1.535.648,1.567,1.567,0,0,1-1.055-.333,2,2,0,0,1-.574-.814,3.561,3.561,0,0,1-.222-1.055Q-78.551-6.956-78.551-7.474Zm8.473-.777q.555-.7,1.572-2.016t2.294-2.831q1.277-1.517,2.72-3.089t2.83-2.868a20.835,20.835,0,0,1,2.609-2.109,3.956,3.956,0,0,1,2.035-.814.989.989,0,0,1,.758.3,1.09,1.09,0,0,1,.278.777,4.349,4.349,0,0,1-.481,1.646q-.481,1.055-1.147,2.22T-57.924-14.8q-.648,1.073-.98,1.665a50.7,50.7,0,0,0-2.4,4.958,6.113,6.113,0,0,0-.444,1.5q-.037.463.2.537a1.073,1.073,0,0,0,.74-.2A9.513,9.513,0,0,0-59.681-7.1q.629-.444,1.277-.962t1.184-.943q.536-.425.925-.7a1.366,1.366,0,0,1,.5-.278.785.785,0,0,1,.518.185.6.6,0,0,1,.222.481,1.646,1.646,0,0,1-.555,1,13.891,13.891,0,0,1-1.295,1.2q-.74.611-1.48,1.128l-1.11.777a9.548,9.548,0,0,1-1.239.721,3.055,3.055,0,0,1-1.351.315,1.426,1.426,0,0,1-1.277-.648,2.54,2.54,0,0,1-.425-1.424,6.718,6.718,0,0,1,.5-2.294,26.488,26.488,0,0,1,1.239-2.775q.74-1.443,1.61-2.886t1.591-2.627q.721-1.184,1.2-1.979a3.243,3.243,0,0,0,.481-.981.214.214,0,0,0-.148-.037.436.436,0,0,0-.185.056.7.7,0,0,0-.185.129,26.212,26.212,0,0,0-2.442,2.054q-1.147,1.092-2.22,2.239a41.765,41.765,0,0,0-3.848,4.773Q-67.932-8.066-69.856-5.7a3.506,3.506,0,0,1-.74.74,1.571,1.571,0,0,1-.962.333A1.325,1.325,0,0,1-72.705-5.2a2.1,2.1,0,0,1-.407-1.24,5.663,5.663,0,0,1,.148-1.073,14.045,14.045,0,0,1,.425-1.536q.277-.832.647-1.7a12.454,12.454,0,0,1,.8-1.573,5.6,5.6,0,0,1,.888-1.147,1.34,1.34,0,0,1,.906-.444,1.088,1.088,0,0,1,.74.352,1.038,1.038,0,0,1,.37.759,2.228,2.228,0,0,1-.111.8,1.3,1.3,0,0,1-.277.444,4.262,4.262,0,0,1-.352.315,1.405,1.405,0,0,0-.333.407A7.934,7.934,0,0,0-70.078-8.251Zm15.244.37q-.333,1.221.056,1.554a1.309,1.309,0,0,0,1.184.148,7.331,7.331,0,0,0,1.832-.759q1.036-.573,2-1.184t1.683-1.092q.721-.481.869-.555a.667.667,0,0,1,.592-.019.56.56,0,0,1,.278.37.946.946,0,0,1-.037.518.633.633,0,0,1-.314.389q-.7.518-1.665,1.221t-2,1.332a15.974,15.974,0,0,1-2.09,1.073,5.045,5.045,0,0,1-1.943.444,1.858,1.858,0,0,1-1.424-.573,3.255,3.255,0,0,1-.759-1.351A3.851,3.851,0,0,1-56.5-8.714a7.566,7.566,0,0,1,1.258-2.368,8.2,8.2,0,0,1,1.979-1.832,4.17,4.17,0,0,1,2.313-.74,2.548,2.548,0,0,1,1.166.314,1.376,1.376,0,0,1,.758.906,1.344,1.344,0,0,1-.333,1.165,7.992,7.992,0,0,1-1.184,1.258A13.822,13.822,0,0,1-52-8.9q-.758.5-1.165.759A2.945,2.945,0,0,1-54.834-7.881Zm1.11-2.146a7.054,7.054,0,0,0,1.295-.666,3.011,3.011,0,0,0,.925-1,6.008,6.008,0,0,0-1.221.722A6.6,6.6,0,0,0-53.724-10.027Zm13.172-1.443a18.976,18.976,0,0,0-1.129,1.609l-1.147,1.813q-.574.906-1.147,1.776A10.978,10.978,0,0,1-45.1-4.81a8.093,8.093,0,0,1-.777.666,1.575,1.575,0,0,1-.962.37,1.126,1.126,0,0,1-.685-.2,2.061,2.061,0,0,1-.481-.5,2.059,2.059,0,0,1-.3-.648,2.685,2.685,0,0,1-.092-.684,7.8,7.8,0,0,1,.222-1.683,14.651,14.651,0,0,1,.629-2.035,16.825,16.825,0,0,1,.98-2.09,11.57,11.57,0,0,1,1.277-1.868,6.039,6.039,0,0,1,1.554-1.332,3.459,3.459,0,0,1,1.776-.5,4.429,4.429,0,0,1,1,.111q.481.111.925.259.481-.629.907-1.313t.962-1.517q.536-.833,1.3-1.906T-35-22.2a10.7,10.7,0,0,1,1.166-1.258,1.653,1.653,0,0,1,1.055-.518.955.955,0,0,1,.611.222.651.651,0,0,1,.277.518.958.958,0,0,1-.2.573q-.2.277-.351.5-1.073,1.628-2.442,3.959t-2.571,4.884a41.741,41.741,0,0,0-2.017,5.106,15.469,15.469,0,0,0-.814,4.662,2.9,2.9,0,0,0,.074.629,3.062,3.062,0,0,1,.074.666.81.81,0,0,1-.2.536.71.71,0,0,1-.574.24.985.985,0,0,1-.906-.592,2.327,2.327,0,0,1-.314-1.073A12.665,12.665,0,0,1-42-4.884q.148-1.036.37-2.109t.5-2.09q.278-1.017.536-1.72a1.435,1.435,0,0,0,.074-.185.7.7,0,0,0,.037-.222A.6.6,0,0,0-40.552-11.47Zm-.333-2.183a1.451,1.451,0,0,0-1.535.259,7.051,7.051,0,0,0-1.48,1.535,15.3,15.3,0,0,0-1.2,1.942q-.518,1-.74,1.48-.851,2.072-.536,2.183t1.572-1.554q.481-.666,1.073-1.517t1.147-1.684q.555-.832,1.017-1.535T-40.885-13.653Zm15.133,9.509a5.506,5.506,0,0,0-.537.537.857.857,0,0,1-.684.277.993.993,0,0,1-.7-.277.664.664,0,0,1-.222-.648,14.542,14.542,0,0,1,.758-3.163q.574-1.609,1.2-3.09.148-.333.61-1.406t1.129-2.461q.666-1.388,1.48-2.9t1.646-2.775a14.205,14.205,0,0,1,1.646-2.091,2.225,2.225,0,0,1,1.443-.832.875.875,0,0,1,.647.24.635.635,0,0,1,.167.611.665.665,0,0,1-.111.407l-1,1.776a.406.406,0,0,1-.2.24,3.293,3.293,0,0,0-.3.148,1.958,1.958,0,0,0-.351.259,2.391,2.391,0,0,0-.407.536q-.185.333-.5.944t-.7,1.351q-.389.74-.8,1.536t-.74,1.517q-.333.721-.574,1.3a3.951,3.951,0,0,0-.278.832q.37-.3.888-.759t1.092-.906A8.761,8.761,0,0,1-20-13.708a2.222,2.222,0,0,1,1.054-.315,1.216,1.216,0,0,1,.87.333,1.922,1.922,0,0,1,.5.74,2.126,2.126,0,0,1,.111.74,4.616,4.616,0,0,1-.093.906q-.092.463-.222.907a6.422,6.422,0,0,1-.24.7q.518-.037,1.24-.111a12.407,12.407,0,0,1,1.24-.074,1.38,1.38,0,0,1,.5.092q.24.092.167.388-.037.333-.555.518a7.671,7.671,0,0,1-1.5.259q-.87.074-1.5.148-.407.814-.925,1.647A8.939,8.939,0,0,1-20.535-5.31,5.591,5.591,0,0,1-22.052-4.2a4.243,4.243,0,0,1-1.924.426A3.047,3.047,0,0,1-24.9-3.9Q-25.308-4.033-25.752-4.144Zm1.591-3.885a4.9,4.9,0,0,0,.814-.278q.481-.2,1-.462l1-.5.777-.389a6.487,6.487,0,0,0,.684-1.628q.092-.518-.167-.573a1.189,1.189,0,0,0-.758.24,6.472,6.472,0,0,0-1.092.851,15.26,15.26,0,0,0-1.2,1.276A11.147,11.147,0,0,0-24.161-8.029ZM-25.2-5.587a2.064,2.064,0,0,0,.888.259,1.85,1.85,0,0,0,.888-.241,4.34,4.34,0,0,0,.851-.61,4.386,4.386,0,0,0,.7-.814,4.537,4.537,0,0,0,.444-.814q-.925.37-2.017.925A5.971,5.971,0,0,0-25.2-5.587ZM-11.248-.111q.7-1.221,1.48-2.812t1.462-3.108q.684-1.517,1.184-2.719t.722-1.684a.293.293,0,0,0-.185-.037,1.671,1.671,0,0,0-.648.407q-.5.407-1.24,1.017t-1.609,1.313q-.87.7-1.72,1.314A13.809,13.809,0,0,1-13.431-5.4a2.952,2.952,0,0,1-1.3.407A1.415,1.415,0,0,1-16.1-5.68a3.177,3.177,0,0,1-.37-1.535,5.815,5.815,0,0,1,.259-1.48,11.786,11.786,0,0,1,.684-1.832,7.261,7.261,0,0,1,.981-1.573,1.561,1.561,0,0,1,1.184-.666,1.011,1.011,0,0,1,.648.259.788.788,0,0,1,.314.629,2.739,2.739,0,0,1-.463,1.073,15.646,15.646,0,0,0-.869,1.7q-.851,1.813-.444,1.98t1.776-.832q.851-.592,1.905-1.443t2.054-1.646l1.813-1.443q.814-.647,1.147-.87a1.247,1.247,0,0,1,.7-.222.917.917,0,0,1,.721.315,1.107,1.107,0,0,1,.278.759,6.876,6.876,0,0,1-.444,1.387q-.444,1.165-1.147,2.793T-6.9-4.792q-.832,1.905-1.646,3.608t-1.462,3a19.135,19.135,0,0,1-.944,1.739,4.619,4.619,0,0,1-.981.981,2.147,2.147,0,0,1-1.313.425,2.731,2.731,0,0,1-1.869-.7,5.675,5.675,0,0,1-1.313-1.739A9.581,9.581,0,0,1-17.205.333a9.243,9.243,0,0,1-.259-2,3.66,3.66,0,0,1,.222-1.295,1.008,1.008,0,0,1,1.073-.592q.7,0,1.091.906a18.968,18.968,0,0,1,.721,2.017q.37,1.184.648,1.85t.592.759q.314.093.758-.407A10.331,10.331,0,0,0-11.248-.111Zm25.6-9.472q-.666,1.7-1.258,3.423a34.259,34.259,0,0,0-1,3.5,2.061,2.061,0,0,0,.3.536.858.858,0,0,1,.185.536A2,2,0,0,1,12.1-.481a1.232,1.232,0,0,1-1.073.518,1.334,1.334,0,0,1-.943-.481,1.286,1.286,0,0,1-.352-.962,16.368,16.368,0,0,1,.222-2.349q.185-1.055.425-2.054t.555-2.016q.314-1.017.611-2.239-.185-.111-.444-.278a3.555,3.555,0,0,1-.481-.37,2.345,2.345,0,0,1-.37-.425.912.912,0,0,1-.148-.518q.222-1.073.481-1.924a7.673,7.673,0,0,1,.518-1.313q.3-.574.666-.536a.839.839,0,0,1,.666.388q.3.389.481.648a.6.6,0,0,0,.259-.074q.74-1.665,1.517-3.311a32.116,32.116,0,0,1,1.739-3.2q-.111-.111-.148-.111a.125.125,0,0,0-.111.056.279.279,0,0,1-.111.093Q14.5-19.8,13.079-18.648a20.451,20.451,0,0,0-2.719,2.664,4.1,4.1,0,0,0-.463.648,4.1,4.1,0,0,1-.462.648,1.031,1.031,0,0,1-.629.222.685.685,0,0,1-.518-.241.772.772,0,0,1-.222-.536,2.676,2.676,0,0,1,.278-.684,2.764,2.764,0,0,1,.425-.648,19.569,19.569,0,0,1,3.46-3.792,27.645,27.645,0,0,1,4.625-3.219,25.042,25.042,0,0,1,5.162-2.164,15.521,15.521,0,0,1,5.069-.666,12.341,12.341,0,0,1,2,.259,7.024,7.024,0,0,1,1.979.722,4.249,4.249,0,0,1,1.462,1.3,3.194,3.194,0,0,1,.518,1.98,5.4,5.4,0,0,1-.8,2.5,10.5,10.5,0,0,1-1.795,2.22,19.12,19.12,0,0,1-2.275,1.85q-1.2.833-2.2,1.387a41.636,41.636,0,0,1-4.2,1.961q-2.127.851-4.422,1.517-.259.074-.5.129a2.073,2.073,0,0,0-.462.167q0,.185.444.648t1.147,1.11q.7.648,1.517,1.351t1.591,1.35q.777.648,1.387,1.147t.87.685q.592.444,1.165.832a6.223,6.223,0,0,0,1.24.648q.185.037.222.148a1.032,1.032,0,0,1,.481.888.952.952,0,0,1-.407.814,1.36,1.36,0,0,1-.925.259,2.936,2.936,0,0,1-1.387-.592q-.907-.592-2-1.462T19.462-4.551q-1.184-1.073-2.22-2.072T15.429-8.418Q14.652-9.213,14.356-9.583ZM15.5-12.691a19.975,19.975,0,0,0,2.442-.722q1.406-.5,2.941-1.184t3.09-1.536a29.047,29.047,0,0,0,2.9-1.813,18.743,18.743,0,0,0,2.386-2,6.76,6.76,0,0,0,1.48-2.072,1.4,1.4,0,0,0,.074-.444,1.127,1.127,0,0,0-.426-.98,3.778,3.778,0,0,0-1.091-.629,6.646,6.646,0,0,0-1.314-.351,7.317,7.317,0,0,0-1.128-.111,13.353,13.353,0,0,0-3.534.333,15.985,15.985,0,0,0-3.349,1.147.461.461,0,0,1,.037.2v.2a1.379,1.379,0,0,1-.3.814,38.521,38.521,0,0,0-2.257,4.514Q16.5-15.022,15.5-12.691ZM34.336-7.474a10.5,10.5,0,0,0-1.055,1.055q-.61.684-1.313,1.351A14.2,14.2,0,0,1,30.58-3.9a2.212,2.212,0,0,1-1.277.5,1.379,1.379,0,0,1-1.3-.722,3.01,3.01,0,0,1-.407-1.5,6.734,6.734,0,0,1,.351-1.758,14.586,14.586,0,0,1,.925-2.313,10.487,10.487,0,0,1,1.276-2,1.916,1.916,0,0,1,1.406-.851,1.216,1.216,0,0,1,.87.333,1.166,1.166,0,0,1,.352.888,2.153,2.153,0,0,1-.3.869q-.3.574-.684,1.258t-.74,1.388A5,5,0,0,0,30.6-6.512a3.24,3.24,0,0,0,1.11-.7q.629-.555,1.313-1.277t1.388-1.517q.7-.8,1.295-1.462t1.055-1.092q.463-.425.685-.425a.81.81,0,0,1,.5.185.579.579,0,0,1,.24.481,2.817,2.817,0,0,1-.333.851q-.333.666-.74,1.536t-.74,1.776a4.609,4.609,0,0,0-.333,1.536,4.488,4.488,0,0,0,.037.555.321.321,0,0,0,.37.3.878.878,0,0,0,.5-.2q.278-.2.463-.352.851-.74,1.5-1.369a12.927,12.927,0,0,0,1.313-1.517q.148-.185.3-.407a1.617,1.617,0,0,1,.333-.37.6.6,0,0,1,.37-.111.746.746,0,0,1,.481.148.534.534,0,0,1,.185.444A2.681,2.681,0,0,1,41.218-8.1a13.756,13.756,0,0,1-1.591,1.757,15.752,15.752,0,0,1-1.868,1.517,2.989,2.989,0,0,1-1.535.648,1.567,1.567,0,0,1-1.055-.333,2,2,0,0,1-.574-.814,3.561,3.561,0,0,1-.222-1.055Q34.336-6.956,34.336-7.474ZM62.493-9.953l.185.259q1.11-.111,2.2-.314a11.986,11.986,0,0,1,2.2-.2,2.343,2.343,0,0,1,.758.148.578.578,0,0,1,.426.592.493.493,0,0,1-.185.407,1.31,1.31,0,0,1-.407.222,5.987,5.987,0,0,1-.7.111q-.37.037-.74.111-1.776.3-3.552.666a1.141,1.141,0,0,0-.389.148,2.335,2.335,0,0,0-.278.3A18.13,18.13,0,0,1,60-5.032,15.157,15.157,0,0,1,57.72-3.126a16.2,16.2,0,0,1-2.608,1.443A21.584,21.584,0,0,1,52.1-.629,8.711,8.711,0,0,1,49.728-.3a6.965,6.965,0,0,1-1.166-.111A6.351,6.351,0,0,1,47.3-.759a2.808,2.808,0,0,1-1.017-.666,1.514,1.514,0,0,1-.407-1.092,2.271,2.271,0,0,1,.685-1.554,7.624,7.624,0,0,1,1.757-1.369,16.776,16.776,0,0,1,2.4-1.147q1.332-.518,2.609-.906t2.386-.666q1.11-.277,1.739-.425.666-.148,1.5-.259a5.883,5.883,0,0,0,1.461-.37.431.431,0,0,0,.3-.444.9.9,0,0,0-.425-.721,3.623,3.623,0,0,0-1.073-.518,10.283,10.283,0,0,0-1.461-.333q-.814-.129-1.573-.185T54.8-11.488q-.629-.019-.925-.019-2,0-3.922.185t-3.922.185q-.74,0-1.628-.056a6.533,6.533,0,0,1-1.665-.314,2.979,2.979,0,0,1-1.295-.832,2.26,2.26,0,0,1-.518-1.573,2.9,2.9,0,0,1,.444-1.462,7.933,7.933,0,0,1,1.091-1.443,14.32,14.32,0,0,1,1.351-1.258q.7-.574,1.258-.981a44.958,44.958,0,0,1,5.217-3.182A50.283,50.283,0,0,1,56.277-24.9a46.231,46.231,0,0,1,6.29-1.832,29.029,29.029,0,0,1,6.105-.684,15.289,15.289,0,0,1,1.684.111,9.145,9.145,0,0,1,1.868.407,4.046,4.046,0,0,1,1.517.888,1.991,1.991,0,0,1,.629,1.517,3.4,3.4,0,0,1-.721,2,11.272,11.272,0,0,1-1.739,1.887A24.267,24.267,0,0,1,69.8-18.962q-1.092.759-1.831,1.24a2.339,2.339,0,0,0-.425.351,6.276,6.276,0,0,1-.518.462q-.278.222-.518.407a.718.718,0,0,1-.388.185.71.71,0,0,1-.518-.222.71.71,0,0,1-.222-.518A1.49,1.49,0,0,1,65.86-18.2a4.1,4.1,0,0,1,.647-.462q.352-.2.685-.389.629-.37,1.351-.833t1.406-1a12.383,12.383,0,0,0,1.258-1.129,5.991,5.991,0,0,0,.943-1.258q.148-.3.278-.592a1.552,1.552,0,0,0,.129-.629.7.7,0,0,0-.333-.647,2.428,2.428,0,0,0-.777-.3,4.525,4.525,0,0,0-.925-.093h-.74a28.569,28.569,0,0,0-6.068.666,39.627,39.627,0,0,0-6.049,1.832,47.984,47.984,0,0,0-5.754,2.7,44.314,44.314,0,0,0-5.143,3.311q-.185.148-.573.444t-.777.648a6.2,6.2,0,0,0-.685.721,1.1,1.1,0,0,0-.3.629q0,.333.444.5a4.566,4.566,0,0,0,1.018.24,8.813,8.813,0,0,0,1.128.074h.74q.851,0,2.183-.019t2.849.037q1.517.055,3.108.222a17.067,17.067,0,0,1,2.942.555,7.842,7.842,0,0,1,2.313,1.054,3.245,3.245,0,0,1,1.295,1.7A.635.635,0,0,1,62.493-9.953ZM49.617-1.887a9.682,9.682,0,0,0,2.775-.444,16.151,16.151,0,0,0,2.886-1.184,16.361,16.361,0,0,0,2.609-1.7,10.571,10.571,0,0,0,1.979-2.035h-.555a8.156,8.156,0,0,0-1.48.222q-1.036.222-2.331.573t-2.683.833q-1.387.481-2.516,1a12.062,12.062,0,0,0-1.868,1.036q-.74.518-.74,1a.417.417,0,0,0,.241.388,2.228,2.228,0,0,0,.574.2,4.093,4.093,0,0,0,.647.092Q49.469-1.887,49.617-1.887ZM91.871-14.06q.3,0,.574.018t.573.018A8.238,8.238,0,0,0,94-14.078a7.913,7.913,0,0,1,.943-.056.912.912,0,0,1,.518.148.535.535,0,0,1,.222.481q0,.444-.629.684a6.508,6.508,0,0,1-1.443.351,14.381,14.381,0,0,1-1.609.13q-.8.018-1.129.056-.333.629-.925,1.942t-1.2,2.757q-.61,1.443-1.054,2.756a6.858,6.858,0,0,0-.444,1.943,1.647,1.647,0,0,0,.148.74.348.348,0,0,1,.092.2,1.707,1.707,0,0,1,.019.24.756.756,0,0,1-.259.574.846.846,0,0,1-.592.24.934.934,0,0,1-.629-.222,1.82,1.82,0,0,1-.425-.536,2.53,2.53,0,0,1-.241-.666,3.16,3.16,0,0,1-.074-.648,7.537,7.537,0,0,1,.333-1.961q.333-1.184.777-2.46t.925-2.479q.481-1.2.777-2.017a1.715,1.715,0,0,0-.333-.037h-.333q-1.3,0-2.627.129a18.373,18.373,0,0,0-2.553.425l-.481.888q-.259.444-.666,1.3T80.2-7.289q-.5,1.036-1.091,2.109T77.9-3.219a7.83,7.83,0,0,1-1.239,1.443,1.851,1.851,0,0,1-1.184.555,1.325,1.325,0,0,1-1.2-.74,6.164,6.164,0,0,1-.647-1.72,17.763,17.763,0,0,1-.333-2A7.955,7.955,0,0,0,73-7.252a2.069,2.069,0,0,0-1.258-1.387,7.7,7.7,0,0,0-1.794-.407,12.579,12.579,0,0,1-1.61-.259.861.861,0,0,1-.7-.944.943.943,0,0,1,.481-.851,5.012,5.012,0,0,1,1.258-.444q.888-.222,2-.425t2.386-.37q1.276-.167,2.442-.315t2.146-.259q.981-.111,1.535-.185a4.837,4.837,0,0,0,.629-.148.821.821,0,0,0,.407-.481q1.258-2.775,2.461-5.458t2.275-5.531q.074-.185.167-.37a2.1,2.1,0,0,1,.24-.37.807.807,0,0,1,.666-.333,1.368,1.368,0,0,1,.648.167.594.594,0,0,1,.314.573v2.331a.464.464,0,0,1-.13.37,1.2,1.2,0,0,1-.3.185,2.246,2.246,0,0,0-.333.185.813.813,0,0,0-.277.37q-.74,2-1.61,3.977T83.287-13.69v.222h.3a23.609,23.609,0,0,0,2.646-.148q1.313-.148,2.646-.185a3.4,3.4,0,0,0,.259-.463q.111-.24.222-.5l.666-1.461q.481-1.055,1.147-2.387t1.424-2.757q.759-1.425,1.48-2.608a23.264,23.264,0,0,1,1.314-1.961q.592-.777.962-.777a.828.828,0,0,1,.629.278.919.919,0,0,1,.259.647,4.1,4.1,0,0,1-.407,1.221q-.407.925-1,2.164t-1.3,2.59q-.7,1.35-1.295,2.535l-1,2a4.1,4.1,0,0,0-.407.962A.635.635,0,0,0,91.871-14.06ZM79.624-11.026a.609.609,0,0,1-.185-.037.609.609,0,0,0-.185-.037q-.185,0-1.091.111l-1.942.24q-1.036.129-1.868.24a5.127,5.127,0,0,0-.869.148v.222l.333.333A4.74,4.74,0,0,1,75-8.14a7.419,7.419,0,0,1,.444,1.591q.111.74.148,1.332a1.647,1.647,0,0,0,.3.925A65.016,65.016,0,0,0,79.624-11.026Z" transform="matrix(0.966, -0.259, 0.259, 0.966, 1060.535, 2275.821)" fill="#fff"/>
    <path id="パス_30611" data-name="パス 30611" d="M-52.043-12.1l.225.315q1.35-.135,2.678-.383a14.578,14.578,0,0,1,2.677-.247,2.85,2.85,0,0,1,.923.18.7.7,0,0,1,.517.72.6.6,0,0,1-.225.495,1.593,1.593,0,0,1-.5.27,7.282,7.282,0,0,1-.855.135q-.45.045-.9.135-2.16.36-4.32.81a1.387,1.387,0,0,0-.472.18,2.84,2.84,0,0,0-.338.36A22.051,22.051,0,0,1-55.08-6.12,18.434,18.434,0,0,1-57.848-3.8,19.7,19.7,0,0,1-61.02-2.047,26.252,26.252,0,0,1-64.687-.765a10.594,10.594,0,0,1-2.88.405A8.471,8.471,0,0,1-68.985-.5a7.724,7.724,0,0,1-1.53-.428,3.416,3.416,0,0,1-1.238-.81,1.842,1.842,0,0,1-.5-1.328,2.762,2.762,0,0,1,.833-1.89,9.272,9.272,0,0,1,2.137-1.665,20.4,20.4,0,0,1,2.925-1.4q1.62-.63,3.173-1.1t2.9-.81q1.35-.337,2.115-.517.81-.18,1.822-.315a7.155,7.155,0,0,0,1.778-.45.525.525,0,0,0,.36-.54,1.089,1.089,0,0,0-.518-.877,4.406,4.406,0,0,0-1.305-.63,12.506,12.506,0,0,0-1.778-.405q-.99-.158-1.913-.225t-1.687-.09q-.765-.023-1.125-.023-2.43,0-4.77.225t-4.77.225q-.9,0-1.98-.068a7.946,7.946,0,0,1-2.025-.382,3.623,3.623,0,0,1-1.575-1.012,2.748,2.748,0,0,1-.63-1.913,3.522,3.522,0,0,1,.54-1.778,9.648,9.648,0,0,1,1.327-1.755,17.417,17.417,0,0,1,1.643-1.53q.855-.7,1.53-1.192a54.678,54.678,0,0,1,6.345-3.87,61.155,61.155,0,0,1,7.29-3.24,56.227,56.227,0,0,1,7.65-2.228,35.306,35.306,0,0,1,7.425-.833,18.594,18.594,0,0,1,2.048.135,11.123,11.123,0,0,1,2.272.495,4.921,4.921,0,0,1,1.845,1.08A2.421,2.421,0,0,1-37.6-29.79a4.134,4.134,0,0,1-.877,2.43,13.709,13.709,0,0,1-2.115,2.3,29.514,29.514,0,0,1-2.565,2q-1.327.922-2.228,1.507a2.845,2.845,0,0,0-.517.427,7.633,7.633,0,0,1-.63.563q-.337.27-.63.495a.874.874,0,0,1-.472.225.863.863,0,0,1-.63-.27.863.863,0,0,1-.27-.63,1.812,1.812,0,0,1,.585-1.4,4.985,4.985,0,0,1,.787-.562q.427-.247.833-.472.765-.45,1.642-1.013t1.71-1.215a15.061,15.061,0,0,0,1.53-1.373,7.286,7.286,0,0,0,1.147-1.53q.18-.36.337-.72a1.888,1.888,0,0,0,.158-.765.854.854,0,0,0-.4-.787,2.952,2.952,0,0,0-.945-.36,5.5,5.5,0,0,0-1.125-.112h-.9a34.746,34.746,0,0,0-7.38.81,48.2,48.2,0,0,0-7.357,2.227,58.359,58.359,0,0,0-7,3.285A53.9,53.9,0,0,0-71.168-20.7q-.225.18-.7.54t-.945.788a7.541,7.541,0,0,0-.832.877,1.332,1.332,0,0,0-.36.765q0,.405.54.608a5.553,5.553,0,0,0,1.237.292,10.719,10.719,0,0,0,1.373.09h.9q1.035,0,2.655-.023t3.465.045q1.845.068,3.78.27a20.757,20.757,0,0,1,3.578.675,9.538,9.538,0,0,1,2.813,1.282,3.947,3.947,0,0,1,1.575,2.07A.772.772,0,0,1-52.043-12.1ZM-67.7-2.3a11.776,11.776,0,0,0,3.375-.54,19.643,19.643,0,0,0,3.51-1.44,19.9,19.9,0,0,0,3.173-2.07A12.856,12.856,0,0,0-55.238-8.82h-.675a9.92,9.92,0,0,0-1.8.27q-1.26.27-2.835.7T-63.81-6.84q-1.688.585-3.06,1.215a14.67,14.67,0,0,0-2.272,1.26q-.9.63-.9,1.215a.507.507,0,0,0,.293.473,2.71,2.71,0,0,0,.7.247,4.978,4.978,0,0,0,.788.112Q-67.883-2.295-67.7-2.3Zm36.45-8.685a6.892,6.892,0,0,1,.427-.653.733.733,0,0,1,.608-.337.791.791,0,0,1,.585.225.791.791,0,0,1,.225.585.2.2,0,0,1-.023.09.2.2,0,0,0-.023.09,6.468,6.468,0,0,1-1.395,2.228,13.323,13.323,0,0,1-2.34,2.047,11.438,11.438,0,0,1-1.958,1.058,6.057,6.057,0,0,1-2.115.517,2.871,2.871,0,0,1-1.8-.495,2.792,2.792,0,0,1-1.013-1.98,5.908,5.908,0,0,1,.18-2.25,5.14,5.14,0,0,0-1.35,1.1q-.675.742-1.373,1.485a13.123,13.123,0,0,1-1.44,1.328,2.533,2.533,0,0,1-1.6.585,1.8,1.8,0,0,1-1.553-.787,2.849,2.849,0,0,1-.562-1.687,5.666,5.666,0,0,1,.7-2.475,11.994,11.994,0,0,1,1.778-2.61,11.942,11.942,0,0,1,2.385-2.07,4.613,4.613,0,0,1,2.52-.855,1.393,1.393,0,0,1,1.237.5,4.477,4.477,0,0,1,.563,1.26,2.719,2.719,0,0,0,.382-.517q.2-.337.405-.652a2.689,2.689,0,0,1,.45-.54.813.813,0,0,1,.563-.225.985.985,0,0,1,.72.427,1.272,1.272,0,0,1,.36.788,3.582,3.582,0,0,1-.315,1.193q-.315.788-.675,1.777a7.663,7.663,0,0,0-.63,2.61,2.117,2.117,0,0,0,.4,1.44,1.374,1.374,0,0,0,1.125.428,3.39,3.39,0,0,0,1.53-.473,7.762,7.762,0,0,0,1.62-1.238A7.4,7.4,0,0,0-31.253-10.98Zm-8.01-2.07a2.548,2.548,0,0,0-.81-.135,1.785,1.785,0,0,0-.877.315,7.781,7.781,0,0,0-1.08.81,14.887,14.887,0,0,0-1.1,1.08,10.773,10.773,0,0,0-.945,1.17,4.386,4.386,0,0,0-.653,1.17q-.113.405.068.472t.585-.157A6.39,6.39,0,0,0-43.132-9q.54-.45,1.17-1.057t1.193-1.193q.563-.585.967-1.08A7.177,7.177,0,0,0-39.263-13.05Zm14.94,3.96a12.771,12.771,0,0,0-1.282,1.283q-.743.832-1.6,1.642A17.273,17.273,0,0,1-28.89-4.747a2.69,2.69,0,0,1-1.552.608,1.677,1.677,0,0,1-1.575-.878,3.661,3.661,0,0,1-.495-1.822,8.189,8.189,0,0,1,.427-2.138A17.74,17.74,0,0,1-30.96-11.79a12.755,12.755,0,0,1,1.552-2.43,2.33,2.33,0,0,1,1.71-1.035,1.479,1.479,0,0,1,1.058.4,1.418,1.418,0,0,1,.427,1.08,2.618,2.618,0,0,1-.36,1.057q-.36.7-.832,1.53t-.9,1.687a6.08,6.08,0,0,0-.562,1.575,3.941,3.941,0,0,0,1.35-.855q.765-.675,1.6-1.552t1.688-1.845q.855-.967,1.575-1.777t1.283-1.328q.563-.518.832-.517a.985.985,0,0,1,.608.225.7.7,0,0,1,.292.585,3.426,3.426,0,0,1-.4,1.035q-.405.81-.9,1.867t-.9,2.16a5.605,5.605,0,0,0-.405,1.868,5.459,5.459,0,0,0,.045.675.391.391,0,0,0,.45.36,1.067,1.067,0,0,0,.608-.248q.338-.247.563-.427,1.035-.9,1.823-1.665a15.723,15.723,0,0,0,1.6-1.845q.18-.225.36-.495a1.967,1.967,0,0,1,.405-.45.729.729,0,0,1,.45-.135.908.908,0,0,1,.585.18.65.65,0,0,1,.225.54,3.26,3.26,0,0,1-.81,1.71,16.73,16.73,0,0,1-1.935,2.137A19.158,19.158,0,0,1-20.16-5.872a3.635,3.635,0,0,1-1.867.787A1.905,1.905,0,0,1-23.31-5.49a2.435,2.435,0,0,1-.7-.99,4.331,4.331,0,0,1-.27-1.283Q-24.323-8.46-24.323-9.09Zm10.305-.945q.675-.855,1.913-2.453t2.79-3.443q1.553-1.845,3.308-3.757t3.442-3.487A25.339,25.339,0,0,1,.607-25.74a4.812,4.812,0,0,1,2.475-.99A1.2,1.2,0,0,1,4-26.37a1.326,1.326,0,0,1,.338.945,5.289,5.289,0,0,1-.585,2q-.585,1.282-1.395,2.7T.765-18q-.787,1.305-1.192,2.025a61.667,61.667,0,0,0-2.925,6.03,7.435,7.435,0,0,0-.54,1.822q-.045.563.247.653a1.3,1.3,0,0,0,.9-.247A11.57,11.57,0,0,0-1.373-8.64Q-.608-9.18.18-9.81t1.44-1.148q.653-.518,1.125-.855a1.661,1.661,0,0,1,.608-.338.954.954,0,0,1,.63.225.726.726,0,0,1,.27.585,2,2,0,0,1-.675,1.215A16.9,16.9,0,0,1,2-8.662Q1.1-7.92.2-7.29l-1.35.945a11.613,11.613,0,0,1-1.507.878A3.715,3.715,0,0,1-4.3-5.085,1.734,1.734,0,0,1-5.85-5.872a3.09,3.09,0,0,1-.517-1.733A8.171,8.171,0,0,1-5.76-10.4,32.215,32.215,0,0,1-4.253-13.77q.9-1.755,1.958-3.51T-.36-20.475q.877-1.44,1.463-2.407a3.944,3.944,0,0,0,.585-1.193.261.261,0,0,0-.18-.045.531.531,0,0,0-.225.068.856.856,0,0,0-.225.157,31.879,31.879,0,0,0-2.97,2.5q-1.4,1.328-2.7,2.722a50.8,50.8,0,0,0-4.68,5.8q-2.115,3.06-4.455,5.94a4.264,4.264,0,0,1-.9.9,1.911,1.911,0,0,1-1.17.405,1.611,1.611,0,0,1-1.395-.7,2.553,2.553,0,0,1-.5-1.508,6.888,6.888,0,0,1,.18-1.3A17.084,17.084,0,0,1-17.01-11q.338-1.013.788-2.07a15.147,15.147,0,0,1,.967-1.913,6.815,6.815,0,0,1,1.08-1.395,1.629,1.629,0,0,1,1.1-.54,1.324,1.324,0,0,1,.9.427,1.263,1.263,0,0,1,.45.923,2.71,2.71,0,0,1-.135.967,1.585,1.585,0,0,1-.337.54,5.183,5.183,0,0,1-.428.383,1.709,1.709,0,0,0-.4.495A9.65,9.65,0,0,0-14.018-10.035Zm31.9-.945a6.892,6.892,0,0,1,.427-.653.733.733,0,0,1,.608-.337.791.791,0,0,1,.585.225.791.791,0,0,1,.225.585.2.2,0,0,1-.023.09.2.2,0,0,0-.023.09,6.468,6.468,0,0,1-1.395,2.228,13.323,13.323,0,0,1-2.34,2.047,11.438,11.438,0,0,1-1.957,1.058,6.057,6.057,0,0,1-2.115.517,2.871,2.871,0,0,1-1.8-.495,2.792,2.792,0,0,1-1.012-1.98,5.908,5.908,0,0,1,.18-2.25,5.14,5.14,0,0,0-1.35,1.1q-.675.742-1.372,1.485A13.123,13.123,0,0,1,5.085-5.94a2.533,2.533,0,0,1-1.6.585,1.8,1.8,0,0,1-1.553-.787A2.849,2.849,0,0,1,1.372-7.83a5.666,5.666,0,0,1,.7-2.475,11.994,11.994,0,0,1,1.777-2.61,11.942,11.942,0,0,1,2.385-2.07,4.613,4.613,0,0,1,2.52-.855,1.393,1.393,0,0,1,1.238.5,4.477,4.477,0,0,1,.562,1.26,2.719,2.719,0,0,0,.382-.517q.2-.337.405-.652a2.689,2.689,0,0,1,.45-.54.813.813,0,0,1,.563-.225.985.985,0,0,1,.72.427,1.272,1.272,0,0,1,.36.788,3.582,3.582,0,0,1-.315,1.193q-.315.788-.675,1.777a7.663,7.663,0,0,0-.63,2.61,2.117,2.117,0,0,0,.4,1.44,1.374,1.374,0,0,0,1.125.428,3.39,3.39,0,0,0,1.53-.473,7.762,7.762,0,0,0,1.62-1.238A7.4,7.4,0,0,0,17.887-10.98Zm-8.01-2.07a2.548,2.548,0,0,0-.81-.135,1.785,1.785,0,0,0-.878.315,7.781,7.781,0,0,0-1.08.81,14.887,14.887,0,0,0-1.1,1.08,10.773,10.773,0,0,0-.945,1.17A4.386,4.386,0,0,0,4.41-8.64q-.113.405.068.472t.585-.157A6.39,6.39,0,0,0,6.007-9q.54-.45,1.17-1.057T8.37-11.25q.563-.585.968-1.08A7.177,7.177,0,0,0,9.877-13.05Zm30.645,2.115a9.294,9.294,0,0,1-1.575,2.408A12.3,12.3,0,0,1,37.1-6.885,6.826,6.826,0,0,1,33.84-5.4a2.335,2.335,0,0,1-2.047-.742,4,4,0,0,1-.833-2.385A11.384,11.384,0,0,1,31.3-11.97a22.183,22.183,0,0,1,1.53-4.387,38.356,38.356,0,0,1,2.34-4.3,35.72,35.72,0,0,1,2.768-3.825A33.222,33.222,0,0,1,40.747-27.5a4.111,4.111,0,0,1,.72-.585,1.288,1.288,0,0,1,.675-.225.94.94,0,0,1,.787.382,1.342,1.342,0,0,1,.292.833,1.084,1.084,0,0,1-.18.653q-.18.247-.4.517-.315.495-1.305,1.755T39.1-21.105q-1.238,1.8-2.5,3.938a29.677,29.677,0,0,0-2.115,4.342,15.827,15.827,0,0,0-.967,3.307A2.8,2.8,0,0,0,33.66-7.83a.779.779,0,0,0,.923.36,4.345,4.345,0,0,0,1.44-.675A10.168,10.168,0,0,0,37.71-9.608a22.409,22.409,0,0,0,1.688-2,.873.873,0,0,1,.495-.428.568.568,0,0,1,.472.068.667.667,0,0,1,.27.427A.825.825,0,0,1,40.522-10.935ZM43.717-8.28a12.928,12.928,0,0,0,1.507-1.148,17.735,17.735,0,0,0,1.305-1.26q.563-.607.945-1.012t.472-.4a.736.736,0,0,1,.54.225.736.736,0,0,1,.225.54,2.779,2.779,0,0,1-.99,1.688,19.733,19.733,0,0,1-2.318,2,19.327,19.327,0,0,1-2.677,1.688,5.067,5.067,0,0,1-2.07.7,2.5,2.5,0,0,1-1.823-.787,2.5,2.5,0,0,1-.787-1.823,8.131,8.131,0,0,1,.45-2.25,18.478,18.478,0,0,1,1.17-2.858,12.609,12.609,0,0,1,1.62-2.475,2.445,2.445,0,0,1,1.755-1.058,1.29,1.29,0,0,1,.923.428,1.29,1.29,0,0,1,.427.922,1.618,1.618,0,0,1-.247.675q-.248.45-.63,1.057T42.682-12.1q-.45.72-.855,1.44-1.08,1.98-.585,2.79T43.717-8.28Zm.09-10.17a5.88,5.88,0,0,1,.2-.832,4.313,4.313,0,0,1,.428-.968,3.635,3.635,0,0,1,.63-.788,1.107,1.107,0,0,1,.765-.337.876.876,0,0,1,.653.315.979.979,0,0,1,.292.675,1.379,1.379,0,0,1-.158.472q-.157.338-.382.72t-.45.72a5.339,5.339,0,0,0-.315.517.838.838,0,0,1-.765.495.614.614,0,0,1-.608-.315A7.023,7.023,0,0,1,43.807-18.45Zm6.75,8.415.18.315a5.078,5.078,0,0,1,1.305,2.475A6.471,6.471,0,0,1,52.02-5.31a16.467,16.467,0,0,1-.562,2.52,24.487,24.487,0,0,1-.99,2.7,16.748,16.748,0,0,1-1.282,2.43,9.491,9.491,0,0,1-1.44,1.777,2.176,2.176,0,0,1-1.462.7,1.909,1.909,0,0,1-1.6-.72,3.809,3.809,0,0,1-.743-1.62,7.908,7.908,0,0,1,.022-2.722,21.978,21.978,0,0,1,.765-3.24q.518-1.643,1.1-3.105t1.035-2.362a2.882,2.882,0,0,1,.248-.472,2.339,2.339,0,0,0,.247-.517,2.043,2.043,0,0,1-.45-.563,4.844,4.844,0,0,1-.315-.608.881.881,0,0,1,.135-.743,1.454,1.454,0,0,1,.5-.427,1.446,1.446,0,0,1,.495-.157q.225-.023.472-.068a1.4,1.4,0,0,0,.472-.18,2.158,2.158,0,0,0,.495-.45q.5-.675,1.26-1.778t1.665-2.16A12.09,12.09,0,0,1,54-18.9a3.276,3.276,0,0,1,1.958-.765,1.323,1.323,0,0,1,.9.36,1.739,1.739,0,0,1,.54.855,2.047,2.047,0,0,1,.022.54,4.551,4.551,0,0,1-.09.63,1.761,1.761,0,0,1-.2.54.442.442,0,0,1-.405.225.985.985,0,0,1-.608-.225,2.743,2.743,0,0,1-.472-.45,8.633,8.633,0,0,0-1.125,1.035q-.585.63-1.17,1.328t-1.08,1.395a12.451,12.451,0,0,0-.81,1.282q1.62,0,3.263-.023t2.722-.022a4.137,4.137,0,0,0,.7-.045q.248-.045.338.45a.64.64,0,0,1-.135.63,1.7,1.7,0,0,1-.54.36,5.049,5.049,0,0,1-1.462.18q-.877,0-1.822-.023l-1.868-.045a7.921,7.921,0,0,0-1.643.113Q50.647-10.53,50.557-10.035ZM49.612-8.1A7.137,7.137,0,0,0,49.1-6.975q-.338.855-.72,1.935T47.61-2.768q-.383,1.193-.653,2.138a4.929,4.929,0,0,0-.2,1.6q.067.472.337.473t.675-.45a6.075,6.075,0,0,0,.81-1.215,16.892,16.892,0,0,0,.945-2.07,12.765,12.765,0,0,0,.653-2.272,7.572,7.572,0,0,0,.112-2.07A2.076,2.076,0,0,0,49.612-8.1Zm9.315-1.485Q58.523-8.1,59-7.7a1.592,1.592,0,0,0,1.44.18,8.916,8.916,0,0,0,2.228-.923q1.26-.7,2.43-1.44T67.14-11.2q.877-.585,1.058-.675a.811.811,0,0,1,.72-.022.681.681,0,0,1,.338.45,1.151,1.151,0,0,1-.045.63.769.769,0,0,1-.382.472q-.855.63-2.025,1.485t-2.43,1.62a19.427,19.427,0,0,1-2.542,1.3,6.136,6.136,0,0,1-2.362.54,2.26,2.26,0,0,1-1.733-.7,3.959,3.959,0,0,1-.923-1.643A4.684,4.684,0,0,1,56.9-10.6a9.2,9.2,0,0,1,1.53-2.88A9.973,9.973,0,0,1,60.84-15.7a5.071,5.071,0,0,1,2.813-.9,3.1,3.1,0,0,1,1.417.382,1.674,1.674,0,0,1,.923,1.1,1.635,1.635,0,0,1-.4,1.417,9.72,9.72,0,0,1-1.44,1.53,16.81,16.81,0,0,1-1.777,1.35q-.923.607-1.418.923A3.581,3.581,0,0,1,58.928-9.585Zm1.35-2.61a8.579,8.579,0,0,0,1.575-.81,3.662,3.662,0,0,0,1.125-1.215,7.307,7.307,0,0,0-1.485.878A8.025,8.025,0,0,0,60.278-12.195ZM70.222-7.74a1.558,1.558,0,0,1,.63-1.057,1.468,1.468,0,0,1,1.035-.27,1.5,1.5,0,0,1,.945.517,1.744,1.744,0,0,1,.36,1.305,5.428,5.428,0,0,1-.833,2.61A16.762,16.762,0,0,1,70.537-2.43a3.007,3.007,0,0,1-.54.5,1.111,1.111,0,0,1-.63.27.726.726,0,0,1-.585-.27.724.724,0,0,1-.18-.585.2.2,0,0,1,.022-.09.2.2,0,0,0,.022-.09q.09-.135.27-.382a3.184,3.184,0,0,1,.27-.337,6.5,6.5,0,0,0,.99-1.328A1.985,1.985,0,0,0,70.4-5.58a2.85,2.85,0,0,0-.135-.81A3.733,3.733,0,0,1,70.222-7.74Z" transform="matrix(0.966, -0.259, 0.259, 0.966, 1046.46, 2224.961)" fill="#fff"/>
  </g>
</svg>
