<svg xmlns="http://www.w3.org/2000/svg" width="244.996" height="162.474" viewBox="0 0 244.996 162.474">
  <g id="グループ_6942" data-name="グループ 6942" transform="translate(-956.822 -999.864)">
    <path id="パス_30605" data-name="パス 30605" d="M-103.592-31.648q-2.3.23-4.577.506t-4.577.506h-.276a1.4,1.4,0,0,0-.805.322,2.3,2.3,0,0,1-1.357.322q-.414,0-1.4-.069a18.3,18.3,0,0,1-2-.253,8.9,8.9,0,0,1-1.794-.506q-.782-.322-.782-.828a.965.965,0,0,1,.414-.9,2.171,2.171,0,0,1,.966-.3q3.036-.23,5.8-.414t5.842-.6q1.288-.184,2.553-.322t2.553-.322a3.6,3.6,0,0,0,1.1-.322,7.519,7.519,0,0,0,.805-.46q.345-.23.6-.414a.831.831,0,0,1,.483-.184,1.045,1.045,0,0,1,.805.322,1.1,1.1,0,0,0,.851.322,8.983,8.983,0,0,0,1.564-.138q.782-.138,1.564-.23,2.622-.276,5.2-.552t5.2-.552q1.2-.092,2.438-.23a22.07,22.07,0,0,1,2.438-.138q.276,0,.828.023a6.317,6.317,0,0,1,1.081.138,3.1,3.1,0,0,1,.92.345.75.75,0,0,1,.391.69A1.083,1.083,0,0,1-77-35.1a1.111,1.111,0,0,1-.6.3,2.644,2.644,0,0,1-.782.023,6.746,6.746,0,0,0-.736-.046,23.057,23.057,0,0,0-3.749.3q-1.817.3-3.7.529l-5.8.736q-2.9.368-5.8.782a3.526,3.526,0,0,0-1.15.391q-.552.3-1.058.621a6.09,6.09,0,0,0-1.2,1.656q-.874,1.472-2.024,3.657t-2.438,4.738q-1.288,2.553-2.438,4.876t-2.024,4.14q-.874,1.817-1.2,2.461-.184.368-.6,1.265t-.92,2.07q-.506,1.173-1.081,2.438t-1.081,2.346q-.506,1.081-.874,1.84t-.46.9a.746.746,0,0,1-.644.322,1.269,1.269,0,0,1-.713-.23A.731.731,0,0,1-118.4.368a8.654,8.654,0,0,1,.6-2.392q.6-1.7,1.518-3.887t2.047-4.646q1.127-2.461,2.185-4.669t1.886-3.933q.828-1.725,1.2-2.415a17.7,17.7,0,0,0,.759-1.633,17.7,17.7,0,0,1,.759-1.633q.184-.322.368-.6l.368-.552q.828-1.38,1.587-2.806T-103.592-31.648Zm5.934,22.356a13.054,13.054,0,0,0-1.311,1.311q-.759.851-1.633,1.679a17.657,17.657,0,0,1-1.725,1.449,2.75,2.75,0,0,1-1.587.621,1.714,1.714,0,0,1-1.61-.9,3.742,3.742,0,0,1-.506-1.863,8.371,8.371,0,0,1,.437-2.185,18.134,18.134,0,0,1,1.15-2.875,13.038,13.038,0,0,1,1.587-2.484,2.382,2.382,0,0,1,1.748-1.058,1.511,1.511,0,0,1,1.081.414,1.449,1.449,0,0,1,.437,1.1,2.676,2.676,0,0,1-.368,1.081q-.368.713-.851,1.564t-.92,1.725A6.215,6.215,0,0,0-102.3-8.1a4.028,4.028,0,0,0,1.38-.874q.782-.69,1.633-1.587t1.725-1.886q.874-.989,1.61-1.817t1.311-1.357q.575-.529.851-.529a1.006,1.006,0,0,1,.621.23.72.72,0,0,1,.3.6,3.5,3.5,0,0,1-.414,1.058q-.414.828-.92,1.909t-.92,2.208a5.73,5.73,0,0,0-.414,1.909,5.579,5.579,0,0,0,.046.69.4.4,0,0,0,.46.368,1.091,1.091,0,0,0,.621-.253q.345-.253.575-.437,1.058-.92,1.863-1.7a16.073,16.073,0,0,0,1.633-1.886q.184-.23.368-.506a2.01,2.01,0,0,1,.414-.46.745.745,0,0,1,.46-.138.928.928,0,0,1,.6.184.664.664,0,0,1,.23.552,3.333,3.333,0,0,1-.828,1.748A17.1,17.1,0,0,1-91.08-7.889,19.584,19.584,0,0,1-93.4-6a3.716,3.716,0,0,1-1.909.805,1.948,1.948,0,0,1-1.311-.414,2.489,2.489,0,0,1-.713-1.012,4.427,4.427,0,0,1-.276-1.311Q-97.658-8.648-97.658-9.292Zm10.534-.966q.69-.874,1.955-2.507t2.852-3.519q1.587-1.886,3.381-3.841t3.519-3.565a25.9,25.9,0,0,1,3.243-2.622,4.918,4.918,0,0,1,2.53-1.012,1.23,1.23,0,0,1,.943.368,1.355,1.355,0,0,1,.345.966,5.407,5.407,0,0,1-.6,2.047q-.6,1.311-1.426,2.76T-72.013-18.4q-.805,1.334-1.219,2.07a63.037,63.037,0,0,0-2.99,6.164A7.6,7.6,0,0,0-76.774-8.3q-.046.575.253.667a1.334,1.334,0,0,0,.92-.253,11.827,11.827,0,0,0,1.4-.943q.782-.552,1.587-1.2t1.472-1.173q.667-.529,1.15-.874a1.7,1.7,0,0,1,.621-.345.975.975,0,0,1,.644.23.742.742,0,0,1,.276.6,2.046,2.046,0,0,1-.69,1.242,17.27,17.27,0,0,1-1.61,1.495q-.92.759-1.84,1.4l-1.38.966a11.87,11.87,0,0,1-1.541.9,3.8,3.8,0,0,1-1.679.391A1.772,1.772,0,0,1-78.775-6,3.158,3.158,0,0,1-79.3-7.774a8.352,8.352,0,0,1,.621-2.852,32.931,32.931,0,0,1,1.541-3.45q.92-1.794,2-3.588t1.978-3.266q.9-1.472,1.495-2.461a4.031,4.031,0,0,0,.6-1.219.266.266,0,0,0-.184-.046.543.543,0,0,0-.23.069.875.875,0,0,0-.23.161,32.588,32.588,0,0,0-3.036,2.553q-1.426,1.357-2.76,2.783a51.925,51.925,0,0,0-4.784,5.934q-2.162,3.128-4.554,6.072a4.358,4.358,0,0,1-.92.92,1.953,1.953,0,0,1-1.2.414,1.647,1.647,0,0,1-1.426-.713A2.61,2.61,0,0,1-90.9-8a7.041,7.041,0,0,1,.184-1.334,17.463,17.463,0,0,1,.529-1.909q.345-1.035.805-2.116a15.483,15.483,0,0,1,.989-1.955,6.966,6.966,0,0,1,1.1-1.426,1.666,1.666,0,0,1,1.127-.552,1.353,1.353,0,0,1,.92.437,1.291,1.291,0,0,1,.46.943,2.77,2.77,0,0,1-.138.989,1.62,1.62,0,0,1-.345.552,5.3,5.3,0,0,1-.437.391,1.747,1.747,0,0,0-.414.506A9.864,9.864,0,0,0-87.124-10.258Zm18.952.46q-.414,1.518.069,1.932a1.627,1.627,0,0,0,1.472.184,9.114,9.114,0,0,0,2.277-.943q1.288-.713,2.484-1.472t2.093-1.357q.9-.6,1.081-.69a.829.829,0,0,1,.736-.023.7.7,0,0,1,.345.46,1.176,1.176,0,0,1-.046.644.786.786,0,0,1-.391.483q-.874.644-2.07,1.518t-2.484,1.656a19.859,19.859,0,0,1-2.6,1.334,6.272,6.272,0,0,1-2.415.552,2.31,2.31,0,0,1-1.771-.713,4.047,4.047,0,0,1-.943-1.679,4.788,4.788,0,0,1,.092-2.921,9.407,9.407,0,0,1,1.564-2.944,10.2,10.2,0,0,1,2.461-2.277,5.184,5.184,0,0,1,2.875-.92,3.168,3.168,0,0,1,1.449.391,1.711,1.711,0,0,1,.943,1.127,1.671,1.671,0,0,1-.414,1.449,9.936,9.936,0,0,1-1.472,1.564,17.185,17.185,0,0,1-1.817,1.38q-.943.621-1.449.943A3.661,3.661,0,0,1-68.172-9.8Zm1.38-2.668a8.769,8.769,0,0,0,1.61-.828,3.743,3.743,0,0,0,1.15-1.242,7.47,7.47,0,0,0-1.518.9A8.2,8.2,0,0,0-66.792-12.466Zm16.376-1.794a23.589,23.589,0,0,0-1.4,2l-1.426,2.254q-.713,1.127-1.426,2.208a13.649,13.649,0,0,1-1.4,1.817,10.063,10.063,0,0,1-.966.828,1.958,1.958,0,0,1-1.2.46,1.4,1.4,0,0,1-.851-.253,2.563,2.563,0,0,1-.6-.621,2.56,2.56,0,0,1-.368-.805,3.338,3.338,0,0,1-.115-.851,9.7,9.7,0,0,1,.276-2.093,18.216,18.216,0,0,1,.782-2.53,20.919,20.919,0,0,1,1.219-2.6A14.385,14.385,0,0,1-56.3-16.767a7.508,7.508,0,0,1,1.932-1.656,4.3,4.3,0,0,1,2.208-.621,5.506,5.506,0,0,1,1.242.138q.6.138,1.15.322.6-.782,1.127-1.633t1.2-1.886q.667-1.035,1.61-2.369t2.323-3.128a13.3,13.3,0,0,1,1.449-1.564,2.056,2.056,0,0,1,1.311-.644,1.188,1.188,0,0,1,.759.276.809.809,0,0,1,.345.644,1.192,1.192,0,0,1-.253.713q-.253.345-.437.621-1.334,2.024-3.036,4.922t-3.2,6.072a51.894,51.894,0,0,0-2.507,6.348,19.232,19.232,0,0,0-1.012,5.8A3.611,3.611,0,0,0-50-3.634a3.807,3.807,0,0,1,.092.828,1.007,1.007,0,0,1-.253.667.883.883,0,0,1-.713.3A1.224,1.224,0,0,1-52-2.576a2.893,2.893,0,0,1-.391-1.334,15.746,15.746,0,0,1,.184-2.162q.184-1.288.46-2.622t.621-2.6q.345-1.265.667-2.139a1.785,1.785,0,0,0,.092-.23.868.868,0,0,0,.046-.276A.741.741,0,0,0-50.416-14.26Zm-.414-2.714a1.8,1.8,0,0,0-1.909.322,8.766,8.766,0,0,0-1.84,1.909,19.023,19.023,0,0,0-1.495,2.415q-.644,1.242-.92,1.84-1.058,2.576-.667,2.714t1.955-1.932q.6-.828,1.334-1.886t1.426-2.093q.69-1.035,1.265-1.909T-50.83-16.974ZM-32.016-5.152a6.845,6.845,0,0,0-.667.667,1.065,1.065,0,0,1-.851.345,1.235,1.235,0,0,1-.874-.345.825.825,0,0,1-.276-.805,18.079,18.079,0,0,1,.943-3.933q.713-2,1.5-3.841.184-.414.759-1.748t1.4-3.059q.828-1.725,1.84-3.611t2.047-3.45a17.661,17.661,0,0,1,2.047-2.6,2.766,2.766,0,0,1,1.794-1.035,1.088,1.088,0,0,1,.805.3.789.789,0,0,1,.207.759.826.826,0,0,1-.138.506l-1.242,2.208a.5.5,0,0,1-.253.3,4.094,4.094,0,0,0-.368.184,2.435,2.435,0,0,0-.437.322,2.973,2.973,0,0,0-.506.667q-.23.414-.621,1.173t-.874,1.679q-.483.92-.989,1.909t-.92,1.886q-.414.9-.713,1.61a4.911,4.911,0,0,0-.345,1.035q.46-.368,1.1-.943t1.357-1.127a10.891,10.891,0,0,1,1.426-.943,2.763,2.763,0,0,1,1.311-.391,1.511,1.511,0,0,1,1.081.414,2.389,2.389,0,0,1,.621.92,2.643,2.643,0,0,1,.138.92,5.738,5.738,0,0,1-.115,1.127q-.115.575-.276,1.127a7.984,7.984,0,0,1-.3.874q.644-.046,1.541-.138a15.425,15.425,0,0,1,1.541-.092,1.715,1.715,0,0,1,.621.115q.3.115.207.483-.046.414-.69.644a9.537,9.537,0,0,1-1.863.322q-1.081.092-1.863.184-.506,1.012-1.15,2.047A11.113,11.113,0,0,1-25.53-6.6a6.951,6.951,0,0,1-1.886,1.38,5.275,5.275,0,0,1-2.392.529,3.789,3.789,0,0,1-1.15-.161Q-31.464-5.014-32.016-5.152Zm1.978-4.83a6.088,6.088,0,0,0,1.012-.345q.6-.253,1.242-.575l1.242-.621.966-.483a8.064,8.064,0,0,0,.851-2.024q.115-.644-.207-.713a1.478,1.478,0,0,0-.943.3,8.046,8.046,0,0,0-1.357,1.058A18.972,18.972,0,0,0-28.727-11.8,13.859,13.859,0,0,0-30.038-9.982Zm-1.288,3.036a2.565,2.565,0,0,0,1.1.322,2.3,2.3,0,0,0,1.1-.3,5.4,5.4,0,0,0,1.058-.759,5.453,5.453,0,0,0,.874-1.012,5.64,5.64,0,0,0,.552-1.012q-1.15.46-2.507,1.15A7.423,7.423,0,0,0-31.326-6.946ZM-13.984-.138q.874-1.518,1.84-3.5T-10.327-7.5q.851-1.886,1.472-3.381t.9-2.093a.364.364,0,0,0-.23-.046,2.078,2.078,0,0,0-.805.506q-.621.506-1.541,1.265t-2,1.633q-1.081.874-2.139,1.633A17.168,17.168,0,0,1-16.7-6.716a3.67,3.67,0,0,1-1.61.506,1.759,1.759,0,0,1-1.7-.851,3.949,3.949,0,0,1-.46-1.909,7.229,7.229,0,0,1,.322-1.84,14.653,14.653,0,0,1,.851-2.277,9.027,9.027,0,0,1,1.219-1.955,1.94,1.94,0,0,1,1.472-.828,1.257,1.257,0,0,1,.805.322.98.98,0,0,1,.391.782,3.4,3.4,0,0,1-.575,1.334,19.451,19.451,0,0,0-1.081,2.116q-1.058,2.254-.552,2.461T-15.41-9.89q1.058-.736,2.369-1.794t2.553-2.047l2.254-1.794q1.012-.8,1.426-1.081a1.55,1.55,0,0,1,.874-.276,1.14,1.14,0,0,1,.9.391,1.376,1.376,0,0,1,.345.943,8.549,8.549,0,0,1-.552,1.725Q-5.8-12.374-6.67-10.35T-8.579-5.957q-1.035,2.369-2.047,4.485t-1.817,3.726a23.789,23.789,0,0,1-1.173,2.162,5.743,5.743,0,0,1-1.219,1.219,2.669,2.669,0,0,1-1.633.529,3.4,3.4,0,0,1-2.323-.874,7.056,7.056,0,0,1-1.633-2.162A11.912,11.912,0,0,1-21.39.414a11.491,11.491,0,0,1-.322-2.484,4.551,4.551,0,0,1,.276-1.61A1.253,1.253,0,0,1-20.1-4.416q.874,0,1.357,1.127a23.581,23.581,0,0,1,.9,2.507q.46,1.472.805,2.3t.736.943q.391.115.943-.506A12.844,12.844,0,0,0-13.984-.138ZM17.848-11.914Q17.02-9.8,16.284-7.659a42.592,42.592,0,0,0-1.242,4.347,2.562,2.562,0,0,0,.368.667,1.067,1.067,0,0,1,.23.667,2.484,2.484,0,0,1-.6,1.38,1.532,1.532,0,0,1-1.334.644,1.659,1.659,0,0,1-1.173-.6,1.6,1.6,0,0,1-.437-1.2,20.349,20.349,0,0,1,.276-2.921q.23-1.311.529-2.553t.69-2.507q.391-1.265.759-2.783-.23-.138-.552-.345a4.42,4.42,0,0,1-.6-.46,2.915,2.915,0,0,1-.46-.529,1.134,1.134,0,0,1-.184-.644q.276-1.334.6-2.392a9.539,9.539,0,0,1,.644-1.633q.368-.713.828-.667a1.043,1.043,0,0,1,.828.483q.368.483.6.805a.741.741,0,0,0,.322-.092q.92-2.07,1.886-4.117a39.929,39.929,0,0,1,2.162-3.979q-.138-.138-.184-.138a.155.155,0,0,0-.138.069.347.347,0,0,1-.138.115q-1.932,1.426-3.7,2.852a25.425,25.425,0,0,0-3.381,3.312,5.1,5.1,0,0,0-.575.805,5.1,5.1,0,0,1-.575.8,1.281,1.281,0,0,1-.782.276.851.851,0,0,1-.644-.3.96.96,0,0,1-.276-.667,3.327,3.327,0,0,1,.345-.851,3.436,3.436,0,0,1,.529-.805,24.328,24.328,0,0,1,4.3-4.715,34.369,34.369,0,0,1,5.75-4,31.134,31.134,0,0,1,6.417-2.691,19.3,19.3,0,0,1,6.3-.828,15.342,15.342,0,0,1,2.484.322,8.732,8.732,0,0,1,2.461.9,5.282,5.282,0,0,1,1.817,1.61,3.971,3.971,0,0,1,.644,2.461,6.719,6.719,0,0,1-.989,3.1,13.058,13.058,0,0,1-2.231,2.76,23.77,23.77,0,0,1-2.829,2.3q-1.495,1.035-2.737,1.725a51.763,51.763,0,0,1-5.221,2.438q-2.645,1.058-5.5,1.886-.322.092-.621.161a2.577,2.577,0,0,0-.575.207q0,.23.552.805t1.426,1.38q.874.805,1.886,1.679T26.22-7.429q.966.805,1.725,1.426t1.081.851q.736.552,1.449,1.035a7.737,7.737,0,0,0,1.541.805q.23.046.276.184a1.283,1.283,0,0,1,.6,1.1,1.183,1.183,0,0,1-.506,1.012,1.69,1.69,0,0,1-1.15.322,3.651,3.651,0,0,1-1.725-.736q-1.127-.736-2.484-1.817T24.2-5.658q-1.472-1.334-2.76-2.576t-2.254-2.231Q18.216-11.454,17.848-11.914Zm1.426-3.864a24.834,24.834,0,0,0,3.036-.9q1.748-.621,3.657-1.472t3.841-1.909a36.112,36.112,0,0,0,3.611-2.254,23.3,23.3,0,0,0,2.967-2.484,8.4,8.4,0,0,0,1.84-2.576,1.736,1.736,0,0,0,.092-.552,1.4,1.4,0,0,0-.529-1.219,4.7,4.7,0,0,0-1.357-.782A8.263,8.263,0,0,0,34.8-30.36a9.1,9.1,0,0,0-1.4-.138A16.6,16.6,0,0,0,29-30.084a19.873,19.873,0,0,0-4.163,1.426.574.574,0,0,1,.046.253v.253a1.714,1.714,0,0,1-.368,1.012,47.89,47.89,0,0,0-2.806,5.612Q20.516-18.676,19.274-15.778ZM42.688-9.292a13.055,13.055,0,0,0-1.311,1.311q-.759.851-1.633,1.679a17.657,17.657,0,0,1-1.725,1.449,2.75,2.75,0,0,1-1.587.621,1.714,1.714,0,0,1-1.61-.9,3.742,3.742,0,0,1-.506-1.863,8.371,8.371,0,0,1,.437-2.185,18.134,18.134,0,0,1,1.15-2.875,13.038,13.038,0,0,1,1.587-2.484,2.382,2.382,0,0,1,1.748-1.058,1.511,1.511,0,0,1,1.081.414,1.449,1.449,0,0,1,.437,1.1,2.676,2.676,0,0,1-.368,1.081q-.368.713-.851,1.564t-.92,1.725a6.216,6.216,0,0,0-.575,1.61,4.028,4.028,0,0,0,1.38-.874q.782-.69,1.633-1.587t1.725-1.886q.874-.989,1.61-1.817T45.7-15.617q.575-.529.851-.529a1.006,1.006,0,0,1,.621.23.72.72,0,0,1,.3.6,3.5,3.5,0,0,1-.414,1.058q-.414.828-.92,1.909t-.92,2.208A5.73,5.73,0,0,0,44.8-8.234a5.58,5.58,0,0,0,.046.69.4.4,0,0,0,.46.368,1.091,1.091,0,0,0,.621-.253q.345-.253.575-.437,1.058-.92,1.863-1.7A16.072,16.072,0,0,0,50-11.454q.184-.23.368-.506a2.01,2.01,0,0,1,.414-.46.745.745,0,0,1,.46-.138.928.928,0,0,1,.6.184.664.664,0,0,1,.23.552,3.333,3.333,0,0,1-.828,1.748,17.1,17.1,0,0,1-1.978,2.185A19.584,19.584,0,0,1,46.943-6a3.716,3.716,0,0,1-1.909.805,1.948,1.948,0,0,1-1.311-.414,2.489,2.489,0,0,1-.713-1.012,4.427,4.427,0,0,1-.276-1.311Q42.688-8.648,42.688-9.292Zm35.006-3.082.23.322q1.38-.138,2.737-.391A14.9,14.9,0,0,1,83.4-12.7a2.913,2.913,0,0,1,.943.184.718.718,0,0,1,.529.736.613.613,0,0,1-.23.506,1.629,1.629,0,0,1-.506.276,7.444,7.444,0,0,1-.874.138q-.46.046-.92.138-2.208.368-4.416.828a1.418,1.418,0,0,0-.483.184,2.9,2.9,0,0,0-.345.368,22.541,22.541,0,0,1-2.507,3.082A18.843,18.843,0,0,1,71.76-3.887a20.14,20.14,0,0,1-3.243,1.794A26.835,26.835,0,0,1,64.768-.782a10.83,10.83,0,0,1-2.944.414,8.659,8.659,0,0,1-1.449-.138,7.9,7.9,0,0,1-1.564-.437,3.492,3.492,0,0,1-1.265-.828,1.883,1.883,0,0,1-.506-1.357,2.824,2.824,0,0,1,.851-1.932,9.478,9.478,0,0,1,2.185-1.7,20.856,20.856,0,0,1,2.99-1.426q1.656-.644,3.243-1.127t2.967-.828q1.38-.345,2.162-.529.828-.184,1.863-.322a7.314,7.314,0,0,0,1.817-.46.536.536,0,0,0,.368-.552,1.113,1.113,0,0,0-.529-.9,4.5,4.5,0,0,0-1.334-.644,12.784,12.784,0,0,0-1.817-.414q-1.012-.161-1.955-.23t-1.725-.092q-.782-.023-1.15-.023-2.484,0-4.876.23t-4.876.23q-.92,0-2.024-.069a8.122,8.122,0,0,1-2.07-.391,3.7,3.7,0,0,1-1.61-1.035,2.809,2.809,0,0,1-.644-1.955,3.6,3.6,0,0,1,.552-1.817,9.863,9.863,0,0,1,1.357-1.794,17.8,17.8,0,0,1,1.679-1.564q.874-.713,1.564-1.219a55.893,55.893,0,0,1,6.486-3.956,62.514,62.514,0,0,1,7.452-3.312,57.476,57.476,0,0,1,7.82-2.277,36.09,36.09,0,0,1,7.59-.851,19.008,19.008,0,0,1,2.093.138,11.37,11.37,0,0,1,2.323.506,5.03,5.03,0,0,1,1.886,1.1,2.475,2.475,0,0,1,.782,1.886,4.226,4.226,0,0,1-.9,2.484A14.014,14.014,0,0,1,89.4-25.622a30.168,30.168,0,0,1-2.622,2.047q-1.357.943-2.277,1.541a2.908,2.908,0,0,0-.529.437,7.8,7.8,0,0,1-.644.575q-.345.276-.644.506a.893.893,0,0,1-.483.23.883.883,0,0,1-.644-.276.883.883,0,0,1-.276-.644,1.852,1.852,0,0,1,.6-1.426,5.1,5.1,0,0,1,.805-.575q.437-.253.851-.483.782-.46,1.679-1.035t1.748-1.242a15.4,15.4,0,0,0,1.564-1.4A7.448,7.448,0,0,0,89.7-28.934q.184-.368.345-.736a1.93,1.93,0,0,0,.161-.782.873.873,0,0,0-.414-.805,3.018,3.018,0,0,0-.966-.368,5.626,5.626,0,0,0-1.15-.115h-.92a35.519,35.519,0,0,0-7.544.828,49.267,49.267,0,0,0-7.521,2.277,59.656,59.656,0,0,0-7.153,3.358,55.094,55.094,0,0,0-6.394,4.117q-.23.184-.713.552t-.966.805a7.708,7.708,0,0,0-.851.9,1.362,1.362,0,0,0-.368.782q0,.414.552.621a5.676,5.676,0,0,0,1.265.3,10.956,10.956,0,0,0,1.4.092h.92q1.058,0,2.714-.023t3.542.046q1.886.069,3.864.276a21.218,21.218,0,0,1,3.657.69,9.75,9.75,0,0,1,2.875,1.311,4.035,4.035,0,0,1,1.61,2.116A.79.79,0,0,1,77.694-12.374ZM61.686-2.346a12.037,12.037,0,0,0,3.45-.552A20.079,20.079,0,0,0,68.724-4.37a20.341,20.341,0,0,0,3.243-2.116,13.142,13.142,0,0,0,2.461-2.53h-.69a10.14,10.14,0,0,0-1.84.276q-1.288.276-2.9.713T65.665-6.992q-1.725.6-3.128,1.242a15,15,0,0,0-2.323,1.288q-.92.644-.92,1.242a.518.518,0,0,0,.3.483,2.77,2.77,0,0,0,.713.253,5.088,5.088,0,0,0,.805.115Q61.5-2.346,61.686-2.346ZM114.218-17.48q.368,0,.713.023t.713.023a10.242,10.242,0,0,0,1.219-.069,9.838,9.838,0,0,1,1.173-.069,1.134,1.134,0,0,1,.644.184.666.666,0,0,1,.276.6q0,.552-.782.851a8.091,8.091,0,0,1-1.794.437,17.879,17.879,0,0,1-2,.161q-.989.023-1.4.069-.414.782-1.15,2.415T110.331-9.43Q109.572-7.636,109.02-6a8.526,8.526,0,0,0-.552,2.415,2.048,2.048,0,0,0,.184.92.433.433,0,0,1,.115.253,2.123,2.123,0,0,1,.023.3.94.94,0,0,1-.322.713,1.051,1.051,0,0,1-.736.3,1.161,1.161,0,0,1-.782-.276,2.263,2.263,0,0,1-.529-.667,3.146,3.146,0,0,1-.3-.828,3.929,3.929,0,0,1-.092-.8,9.37,9.37,0,0,1,.414-2.438q.414-1.472.966-3.059t1.15-3.082q.6-1.5.966-2.507a2.132,2.132,0,0,0-.414-.046H108.7q-1.61,0-3.266.161a22.842,22.842,0,0,0-3.174.529l-.6,1.1q-.322.552-.828,1.61T99.705-9.062q-.621,1.288-1.357,2.622T96.853-4a9.734,9.734,0,0,1-1.541,1.794,2.3,2.3,0,0,1-1.472.69,1.647,1.647,0,0,1-1.495-.92,7.664,7.664,0,0,1-.805-2.139,22.087,22.087,0,0,1-.414-2.484,9.891,9.891,0,0,0-.368-1.955,2.573,2.573,0,0,0-1.564-1.725,9.575,9.575,0,0,0-2.231-.506,15.638,15.638,0,0,1-2-.322,1.071,1.071,0,0,1-.874-1.173,1.172,1.172,0,0,1,.6-1.058,6.231,6.231,0,0,1,1.564-.552q1.1-.276,2.484-.529t2.967-.46q1.587-.207,3.036-.391t2.668-.322q1.219-.138,1.909-.23a6.013,6.013,0,0,0,.782-.184,1.021,1.021,0,0,0,.506-.6q1.564-3.45,3.059-6.785t2.829-6.877q.092-.23.207-.46a2.605,2.605,0,0,1,.3-.46,1,1,0,0,1,.828-.414,1.7,1.7,0,0,1,.8.207.739.739,0,0,1,.391.713v2.9a.577.577,0,0,1-.161.46,1.493,1.493,0,0,1-.368.23,2.792,2.792,0,0,0-.414.23,1.011,1.011,0,0,0-.345.46q-.92,2.484-2,4.945t-2.185,4.9v.276h.368a29.351,29.351,0,0,0,3.289-.184q1.633-.184,3.289-.23a4.234,4.234,0,0,0,.322-.575q.138-.3.276-.621l.828-1.817q.6-1.311,1.426-2.967t1.771-3.427q.943-1.771,1.84-3.243a28.924,28.924,0,0,1,1.633-2.438q.736-.966,1.2-.966a1.03,1.03,0,0,1,.782.345,1.143,1.143,0,0,1,.322.805,5.1,5.1,0,0,1-.506,1.518q-.506,1.15-1.242,2.691t-1.61,3.22q-.874,1.679-1.61,3.151L114.678-19a5.1,5.1,0,0,0-.506,1.2A.789.789,0,0,0,114.218-17.48ZM98.992-13.708a.757.757,0,0,1-.23-.046.757.757,0,0,0-.23-.046q-.23,0-1.357.138t-2.415.3q-1.288.161-2.323.3a6.373,6.373,0,0,0-1.081.184v.276l.414.414a5.893,5.893,0,0,1,1.472,2.07,9.223,9.223,0,0,1,.552,1.978q.138.92.184,1.656a2.048,2.048,0,0,0,.368,1.15A80.828,80.828,0,0,0,98.992-13.708Z" transform="matrix(0.966, -0.259, 0.259, 0.966, 1083.453, 1125.025)" fill="#fff"/>
    <path id="パス_30604" data-name="パス 30604" d="M-63.608-14.8l.275.385q1.65-.165,3.272-.468a17.817,17.817,0,0,1,3.272-.3,3.484,3.484,0,0,1,1.128.22.859.859,0,0,1,.632.88.732.732,0,0,1-.275.605,1.947,1.947,0,0,1-.6.33,8.9,8.9,0,0,1-1.045.165q-.55.055-1.1.165-2.64.44-5.28.99a1.7,1.7,0,0,0-.578.22,3.472,3.472,0,0,0-.412.44,26.951,26.951,0,0,1-3,3.685A22.53,22.53,0,0,1-70.7-4.648,24.08,24.08,0,0,1-74.58-2.5,32.085,32.085,0,0,1-79.062-.935a12.949,12.949,0,0,1-3.52.5,10.354,10.354,0,0,1-1.732-.165,9.44,9.44,0,0,1-1.87-.523,4.175,4.175,0,0,1-1.513-.99,2.251,2.251,0,0,1-.6-1.623,3.376,3.376,0,0,1,1.017-2.31,11.333,11.333,0,0,1,2.613-2.035A24.937,24.937,0,0,1-81.1-9.79q1.98-.77,3.878-1.347t3.548-.99q1.65-.412,2.585-.632.99-.22,2.228-.385a8.745,8.745,0,0,0,2.173-.55.641.641,0,0,0,.44-.66,1.331,1.331,0,0,0-.633-1.072,5.385,5.385,0,0,0-1.595-.77,15.286,15.286,0,0,0-2.173-.495q-1.21-.193-2.338-.275t-2.062-.11q-.935-.028-1.375-.028-2.97,0-5.83.275t-5.83.275q-1.1,0-2.42-.083a9.712,9.712,0,0,1-2.475-.467A4.428,4.428,0,0,1-94.9-18.343a3.359,3.359,0,0,1-.77-2.337,4.3,4.3,0,0,1,.66-2.173A11.792,11.792,0,0,1-93.39-25a21.288,21.288,0,0,1,2.007-1.87q1.045-.853,1.87-1.457a66.829,66.829,0,0,1,7.755-4.73,74.746,74.746,0,0,1,8.91-3.96,68.722,68.722,0,0,1,9.35-2.723,43.151,43.151,0,0,1,9.075-1.017,22.726,22.726,0,0,1,2.5.165,13.6,13.6,0,0,1,2.777.6,6.014,6.014,0,0,1,2.255,1.32,2.959,2.959,0,0,1,.935,2.255,5.053,5.053,0,0,1-1.072,2.97,16.755,16.755,0,0,1-2.585,2.805,36.072,36.072,0,0,1-3.135,2.447q-1.623,1.127-2.722,1.843a3.478,3.478,0,0,0-.632.522,9.329,9.329,0,0,1-.77.688q-.412.33-.77.6a1.068,1.068,0,0,1-.578.275,1.055,1.055,0,0,1-.77-.33,1.055,1.055,0,0,1-.33-.77A2.215,2.215,0,0,1-58.6-27.06a6.092,6.092,0,0,1,.963-.687q.522-.3,1.017-.578.935-.55,2.007-1.238t2.09-1.485a18.407,18.407,0,0,0,1.87-1.678,8.9,8.9,0,0,0,1.4-1.87q.22-.44.412-.88a2.307,2.307,0,0,0,.193-.935,1.044,1.044,0,0,0-.5-.962,3.608,3.608,0,0,0-1.155-.44,6.726,6.726,0,0,0-1.375-.138h-1.1a42.468,42.468,0,0,0-9.02.99,58.906,58.906,0,0,0-8.993,2.722,71.328,71.328,0,0,0-8.552,4.015A65.873,65.873,0,0,0-86.982-25.3q-.275.22-.853.66t-1.155.963a9.217,9.217,0,0,0-1.018,1.072,1.628,1.628,0,0,0-.44.935q0,.495.66.743a6.787,6.787,0,0,0,1.512.357,13.1,13.1,0,0,0,1.677.11h1.1q1.265,0,3.245-.027t4.235.055q2.255.082,4.62.33a25.369,25.369,0,0,1,4.372.825,11.657,11.657,0,0,1,3.438,1.568,4.824,4.824,0,0,1,1.925,2.53A.944.944,0,0,1-63.608-14.8ZM-82.747-2.8a14.392,14.392,0,0,0,4.125-.66,24.008,24.008,0,0,0,4.29-1.76,24.32,24.32,0,0,0,3.878-2.53,15.713,15.713,0,0,0,2.943-3.025h-.825a12.124,12.124,0,0,0-2.2.33q-1.54.33-3.465.852T-77.99-8.36q-2.062.715-3.74,1.485a17.93,17.93,0,0,0-2.777,1.54q-1.1.77-1.1,1.485a.62.62,0,0,0,.357.577,3.312,3.312,0,0,0,.853.3,6.084,6.084,0,0,0,.963.138Q-82.967-2.8-82.747-2.8ZM-38.2-13.42a8.423,8.423,0,0,1,.522-.8.9.9,0,0,1,.743-.412.967.967,0,0,1,.715.275.967.967,0,0,1,.275.715.244.244,0,0,1-.028.11.244.244,0,0,0-.028.11A7.906,7.906,0,0,1-37.7-10.7a16.283,16.283,0,0,1-2.86,2.5A13.979,13.979,0,0,1-42.955-6.9a7.4,7.4,0,0,1-2.585.632,3.509,3.509,0,0,1-2.2-.605A3.412,3.412,0,0,1-48.978-9.3a7.221,7.221,0,0,1,.22-2.75,6.282,6.282,0,0,0-1.65,1.347q-.825.908-1.678,1.815a16.039,16.039,0,0,1-1.76,1.623,3.1,3.1,0,0,1-1.952.715,2.2,2.2,0,0,1-1.9-.963,3.483,3.483,0,0,1-.687-2.062A6.925,6.925,0,0,1-57.53-12.6a14.659,14.659,0,0,1,2.173-3.19,14.6,14.6,0,0,1,2.915-2.53,5.638,5.638,0,0,1,3.08-1.045,1.7,1.7,0,0,1,1.513.605,5.472,5.472,0,0,1,.688,1.54,3.323,3.323,0,0,0,.467-.632q.248-.412.5-.8a3.287,3.287,0,0,1,.55-.66.994.994,0,0,1,.688-.275,1.2,1.2,0,0,1,.88.522,1.555,1.555,0,0,1,.44.963,4.378,4.378,0,0,1-.385,1.457q-.385.963-.825,2.173a9.366,9.366,0,0,0-.77,3.19,2.588,2.588,0,0,0,.495,1.76,1.68,1.68,0,0,0,1.375.523,4.144,4.144,0,0,0,1.87-.578,9.486,9.486,0,0,0,1.98-1.512A9.046,9.046,0,0,0-38.2-13.42Zm-9.79-2.53a3.114,3.114,0,0,0-.99-.165,2.181,2.181,0,0,0-1.073.385,9.51,9.51,0,0,0-1.32.99,18.2,18.2,0,0,0-1.347,1.32,13.167,13.167,0,0,0-1.155,1.43,5.36,5.36,0,0,0-.8,1.43q-.138.5.083.578t.715-.193A7.809,7.809,0,0,0-52.718-11q.66-.55,1.43-1.292t1.458-1.458q.687-.715,1.182-1.32A8.771,8.771,0,0,0-47.988-15.95Zm18.26,4.84A15.609,15.609,0,0,0-31.3-9.543q-.907,1.018-1.952,2.008A21.111,21.111,0,0,1-35.31-5.8a3.288,3.288,0,0,1-1.9.742,2.049,2.049,0,0,1-1.925-1.073,4.474,4.474,0,0,1-.605-2.227,10.009,10.009,0,0,1,.523-2.613A21.682,21.682,0,0,1-37.84-14.41a15.589,15.589,0,0,1,1.9-2.97,2.848,2.848,0,0,1,2.09-1.265,1.807,1.807,0,0,1,1.292.495,1.733,1.733,0,0,1,.522,1.32,3.2,3.2,0,0,1-.44,1.292q-.44.853-1.018,1.87T-34.6-11.6a7.432,7.432,0,0,0-.687,1.925,4.816,4.816,0,0,0,1.65-1.045q.935-.825,1.952-1.9t2.063-2.255q1.045-1.182,1.925-2.172t1.568-1.623q.688-.633,1.017-.632a1.2,1.2,0,0,1,.743.275.861.861,0,0,1,.358.715,4.187,4.187,0,0,1-.5,1.265q-.495.99-1.1,2.282t-1.1,2.64a6.851,6.851,0,0,0-.5,2.283,6.672,6.672,0,0,0,.055.825.478.478,0,0,0,.55.44,1.3,1.3,0,0,0,.743-.3q.413-.3.688-.523,1.265-1.1,2.228-2.035a19.217,19.217,0,0,0,1.952-2.255q.22-.275.44-.6a2.4,2.4,0,0,1,.5-.55.891.891,0,0,1,.55-.165,1.11,1.11,0,0,1,.715.22.794.794,0,0,1,.275.66,3.985,3.985,0,0,1-.99,2.09,20.448,20.448,0,0,1-2.365,2.613A23.415,23.415,0,0,1-24.64-7.178a4.443,4.443,0,0,1-2.282.963,2.329,2.329,0,0,1-1.568-.5,2.976,2.976,0,0,1-.852-1.21,5.293,5.293,0,0,1-.33-1.568Q-29.728-10.34-29.728-11.11Zm12.6-1.155q.825-1.045,2.337-3t3.41-4.207q1.9-2.255,4.043-4.593t4.207-4.262A30.97,30.97,0,0,1,.743-31.46a5.881,5.881,0,0,1,3.025-1.21,1.471,1.471,0,0,1,1.127.44,1.62,1.62,0,0,1,.413,1.155,6.464,6.464,0,0,1-.715,2.448q-.715,1.568-1.7,3.3T.935-22q-.962,1.6-1.458,2.475A75.371,75.371,0,0,0-4.1-12.155a9.087,9.087,0,0,0-.66,2.227q-.055.687.3.8a1.594,1.594,0,0,0,1.1-.3A14.141,14.141,0,0,0-1.677-10.56q.935-.66,1.9-1.43t1.76-1.4q.8-.632,1.375-1.045A2.03,2.03,0,0,1,4.1-14.85a1.166,1.166,0,0,1,.77.275.887.887,0,0,1,.33.715,2.447,2.447,0,0,1-.825,1.485,20.649,20.649,0,0,1-1.925,1.788q-1.1.907-2.2,1.677L-1.4-7.755A14.194,14.194,0,0,1-3.245-6.682a4.54,4.54,0,0,1-2.008.468,2.119,2.119,0,0,1-1.9-.963A3.776,3.776,0,0,1-7.783-9.3,9.986,9.986,0,0,1-7.04-12.7,39.373,39.373,0,0,1-5.2-16.83q1.1-2.145,2.392-4.29T-.44-25.025q1.073-1.76,1.788-2.942a4.82,4.82,0,0,0,.715-1.458.319.319,0,0,0-.22-.055.649.649,0,0,0-.275.083,1.047,1.047,0,0,0-.275.192,38.964,38.964,0,0,0-3.63,3.053q-1.705,1.623-3.3,3.328a62.083,62.083,0,0,0-5.72,7.095q-2.585,3.74-5.445,7.26a5.211,5.211,0,0,1-1.1,1.1,2.335,2.335,0,0,1-1.43.5,1.969,1.969,0,0,1-1.7-.852,3.121,3.121,0,0,1-.6-1.843,8.419,8.419,0,0,1,.22-1.6,20.881,20.881,0,0,1,.632-2.283q.412-1.237.963-2.53a18.513,18.513,0,0,1,1.182-2.338,8.329,8.329,0,0,1,1.32-1.7,1.992,1.992,0,0,1,1.347-.66,1.618,1.618,0,0,1,1.1.522,1.544,1.544,0,0,1,.55,1.128,3.312,3.312,0,0,1-.165,1.182,1.937,1.937,0,0,1-.413.66,6.335,6.335,0,0,1-.522.468,2.089,2.089,0,0,0-.5.6A11.794,11.794,0,0,0-17.132-12.265ZM21.862-13.42a8.423,8.423,0,0,1,.523-.8.9.9,0,0,1,.743-.412.967.967,0,0,1,.715.275.967.967,0,0,1,.275.715.244.244,0,0,1-.028.11.244.244,0,0,0-.027.11,7.906,7.906,0,0,1-1.7,2.722A16.283,16.283,0,0,1,19.5-8.2,13.979,13.979,0,0,1,17.1-6.9a7.4,7.4,0,0,1-2.585.632,3.509,3.509,0,0,1-2.2-.605A3.412,3.412,0,0,1,11.082-9.3a7.221,7.221,0,0,1,.22-2.75A6.282,6.282,0,0,0,9.652-10.7q-.825.908-1.677,1.815A16.039,16.039,0,0,1,6.215-7.26a3.1,3.1,0,0,1-1.953.715,2.2,2.2,0,0,1-1.9-.963A3.483,3.483,0,0,1,1.677-9.57,6.925,6.925,0,0,1,2.53-12.6,14.659,14.659,0,0,1,4.7-15.785a14.6,14.6,0,0,1,2.915-2.53A5.638,5.638,0,0,1,10.7-19.36a1.7,1.7,0,0,1,1.512.605,5.472,5.472,0,0,1,.688,1.54,3.323,3.323,0,0,0,.467-.632q.247-.412.5-.8a3.287,3.287,0,0,1,.55-.66.994.994,0,0,1,.688-.275,1.2,1.2,0,0,1,.88.522,1.555,1.555,0,0,1,.44.963,4.378,4.378,0,0,1-.385,1.457q-.385.963-.825,2.173a9.366,9.366,0,0,0-.77,3.19,2.588,2.588,0,0,0,.5,1.76,1.68,1.68,0,0,0,1.375.523,4.144,4.144,0,0,0,1.87-.578,9.487,9.487,0,0,0,1.98-1.512A9.046,9.046,0,0,0,21.862-13.42Zm-9.79-2.53a3.114,3.114,0,0,0-.99-.165,2.181,2.181,0,0,0-1.073.385,9.51,9.51,0,0,0-1.32.99,18.2,18.2,0,0,0-1.347,1.32,13.168,13.168,0,0,0-1.155,1.43,5.36,5.36,0,0,0-.8,1.43q-.138.5.083.578t.715-.193A7.809,7.809,0,0,0,7.342-11q.66-.55,1.43-1.292T10.23-13.75q.687-.715,1.183-1.32A8.772,8.772,0,0,0,12.072-15.95Zm37.455,2.585A11.36,11.36,0,0,1,47.6-10.423a15.034,15.034,0,0,1-2.255,2.008A8.343,8.343,0,0,1,41.36-6.6a2.854,2.854,0,0,1-2.5-.908,4.892,4.892,0,0,1-1.018-2.915,13.914,13.914,0,0,1,.413-4.207,27.113,27.113,0,0,1,1.87-5.363,46.88,46.88,0,0,1,2.86-5.252,43.659,43.659,0,0,1,3.382-4.675A40.6,40.6,0,0,1,49.8-33.6a5.025,5.025,0,0,1,.88-.715,1.574,1.574,0,0,1,.825-.275,1.149,1.149,0,0,1,.962.467,1.64,1.64,0,0,1,.358,1.018,1.325,1.325,0,0,1-.22.8q-.22.3-.5.633-.385.6-1.595,2.145T47.795-25.8q-1.513,2.2-3.053,4.813a36.272,36.272,0,0,0-2.585,5.307,19.344,19.344,0,0,0-1.182,4.042A3.425,3.425,0,0,0,41.14-9.57a.952.952,0,0,0,1.127.44,5.31,5.31,0,0,0,1.76-.825,12.427,12.427,0,0,0,2.063-1.787,27.389,27.389,0,0,0,2.063-2.448,1.067,1.067,0,0,1,.605-.523.694.694,0,0,1,.577.083.816.816,0,0,1,.33.523A1.009,1.009,0,0,1,49.527-13.365Zm3.905,3.245a15.8,15.8,0,0,0,1.842-1.4,21.675,21.675,0,0,0,1.6-1.54q.687-.742,1.155-1.237t.577-.5a.9.9,0,0,1,.66.275.9.9,0,0,1,.275.66,3.4,3.4,0,0,1-1.21,2.063A24.118,24.118,0,0,1,55.5-9.35a23.622,23.622,0,0,1-3.272,2.063,6.193,6.193,0,0,1-2.53.852A3.058,3.058,0,0,1,47.465-7.4,3.058,3.058,0,0,1,46.5-9.625a9.938,9.938,0,0,1,.55-2.75,22.584,22.584,0,0,1,1.43-3.493,15.411,15.411,0,0,1,1.98-3.025,2.988,2.988,0,0,1,2.145-1.293,1.577,1.577,0,0,1,1.127.523,1.577,1.577,0,0,1,.523,1.127,1.978,1.978,0,0,1-.3.825q-.3.55-.77,1.292T52.168-14.8q-.55.88-1.045,1.76-1.32,2.42-.715,3.41T53.433-10.12Zm.11-12.43a7.186,7.186,0,0,1,.247-1.017,5.272,5.272,0,0,1,.523-1.183,4.442,4.442,0,0,1,.77-.962,1.353,1.353,0,0,1,.935-.413,1.07,1.07,0,0,1,.8.385,1.2,1.2,0,0,1,.358.825,1.685,1.685,0,0,1-.193.578q-.192.412-.467.88t-.55.88a6.525,6.525,0,0,0-.385.632,1.024,1.024,0,0,1-.935.6.75.75,0,0,1-.743-.385A8.583,8.583,0,0,1,53.543-22.55Zm8.25,10.285.22.385a6.207,6.207,0,0,1,1.595,3.025A7.909,7.909,0,0,1,63.58-6.49a20.127,20.127,0,0,1-.687,3.08,29.928,29.928,0,0,1-1.21,3.3,20.469,20.469,0,0,1-1.567,2.97,11.6,11.6,0,0,1-1.76,2.172,2.659,2.659,0,0,1-1.787.853,2.333,2.333,0,0,1-1.952-.88,4.656,4.656,0,0,1-.908-1.98A9.666,9.666,0,0,1,53.735-.3a26.862,26.862,0,0,1,.935-3.96q.633-2.008,1.348-3.8t1.265-2.887a3.523,3.523,0,0,1,.3-.578,2.859,2.859,0,0,0,.3-.632,2.5,2.5,0,0,1-.55-.688,5.92,5.92,0,0,1-.385-.742,1.077,1.077,0,0,1,.165-.908,1.777,1.777,0,0,1,.6-.523,1.767,1.767,0,0,1,.6-.192q.275-.028.577-.083a1.71,1.71,0,0,0,.577-.22,2.638,2.638,0,0,0,.605-.55q.6-.825,1.54-2.173t2.035-2.64A14.776,14.776,0,0,1,66-23.1a4,4,0,0,1,2.393-.935,1.617,1.617,0,0,1,1.1.44,2.126,2.126,0,0,1,.66,1.045,2.5,2.5,0,0,1,.027.66,5.562,5.562,0,0,1-.11.77,2.153,2.153,0,0,1-.247.66.54.54,0,0,1-.5.275,1.2,1.2,0,0,1-.743-.275,3.352,3.352,0,0,1-.577-.55,10.551,10.551,0,0,0-1.375,1.265q-.715.77-1.43,1.622t-1.32,1.7a15.218,15.218,0,0,0-.99,1.567q1.98,0,3.987-.028t3.327-.027a5.057,5.057,0,0,0,.853-.055q.3-.055.412.55a.782.782,0,0,1-.165.77,2.081,2.081,0,0,1-.66.44,6.171,6.171,0,0,1-1.787.22q-1.073,0-2.228-.027l-2.283-.055a9.682,9.682,0,0,0-2.007.137Q61.9-12.87,61.792-12.265ZM60.637-9.9A8.722,8.722,0,0,0,60-8.525q-.413,1.045-.88,2.365T58.19-3.383q-.467,1.458-.8,2.613a6.024,6.024,0,0,0-.248,1.953q.083.578.412.578t.825-.55a7.425,7.425,0,0,0,.99-1.485A20.645,20.645,0,0,0,60.527-2.8a15.6,15.6,0,0,0,.8-2.778,9.255,9.255,0,0,0,.138-2.53A2.537,2.537,0,0,0,60.637-9.9Zm11.385-1.815q-.5,1.815.082,2.31a1.946,1.946,0,0,0,1.76.22,10.9,10.9,0,0,0,2.723-1.128q1.54-.853,2.97-1.76t2.5-1.622q1.073-.715,1.293-.825a.992.992,0,0,1,.88-.028.833.833,0,0,1,.412.55,1.407,1.407,0,0,1-.055.77.94.94,0,0,1-.467.577q-1.045.77-2.475,1.815t-2.97,1.98A23.744,23.744,0,0,1,75.57-7.26a7.5,7.5,0,0,1-2.888.66,2.762,2.762,0,0,1-2.118-.852A4.839,4.839,0,0,1,69.438-9.46a5.725,5.725,0,0,1,.11-3.492,11.247,11.247,0,0,1,1.87-3.52,12.19,12.19,0,0,1,2.943-2.722A6.2,6.2,0,0,1,77.8-20.3a3.788,3.788,0,0,1,1.732.467,2.046,2.046,0,0,1,1.128,1.348,2,2,0,0,1-.5,1.732,11.88,11.88,0,0,1-1.76,1.87,20.546,20.546,0,0,1-2.173,1.65Q75.1-12.485,74.5-12.1A4.377,4.377,0,0,1,72.022-11.715Zm1.65-3.19A10.485,10.485,0,0,0,75.6-15.9a4.475,4.475,0,0,0,1.375-1.485,8.931,8.931,0,0,0-1.815,1.073A9.808,9.808,0,0,0,73.673-14.9ZM85.827-9.46a1.9,1.9,0,0,1,.77-1.293,1.794,1.794,0,0,1,1.265-.33,1.832,1.832,0,0,1,1.155.632,2.132,2.132,0,0,1,.44,1.6,6.634,6.634,0,0,1-1.018,3.19A20.487,20.487,0,0,1,86.213-2.97a3.675,3.675,0,0,1-.66.605,1.358,1.358,0,0,1-.77.33.887.887,0,0,1-.715-.33.885.885,0,0,1-.22-.715.244.244,0,0,1,.027-.11A.244.244,0,0,0,83.9-3.3q.11-.165.33-.467a3.89,3.89,0,0,1,.33-.412A7.943,7.943,0,0,0,85.772-5.8a2.426,2.426,0,0,0,.275-1.017,3.484,3.484,0,0,0-.165-.99A4.562,4.562,0,0,1,85.827-9.46Z" transform="matrix(0.966, -0.259, 0.259, 0.966, 1064.776, 1062.385)" fill="#fff"/>
  </g>
</svg>
